<svg xmlns="http://www.w3.org/2000/svg" xmlns:xlink="http://www.w3.org/1999/xlink" version="1.1" id="Layer_1" x="0px" y="0px" viewBox="0 0 400 400" style="enable-background:new 0 0 400 400;" xml:space="preserve" fill-opacity="0.07">
<style type="text/css">
	.st0{fill:#FFFFFF;}
</style>
<g>
	<path class="st0" d="M-0.1-0.1v400.2h400.2V-0.1H-0.1z M399.9,1.3l-9.7-1.2h9.7V1.3z M386.1,2.6l13.8,1.7v10.2L386.1,2.6z    M399.9,18.5v13.3c-6.4-3.4-12.8-4.1-16.2-4.2l7.4-16.7L399.9,18.5z M353,0.1h8.6L360.7,2c-0.4,0.7-0.1,1.6,0.7,2   c0.2,0.1,0.4,0.2,0.7,0.2c0.6,0,1.1-0.3,1.3-0.8l1.6-3.2h0.1l3.2,1.6c0.2,0.1,0.4,0.2,0.7,0.2c0.6,0,1.1-0.3,1.3-0.8   c0.1-0.3,0.2-0.6,0.1-0.9h3.3L369.7,8c-0.7,1.4-2.5,2.1-3.9,1.4l-11.5-5.7C353,3.1,352.4,1.5,353,0.1z M330.2,0.1l8.7,4.3   c1.4,0.7,2,2.4,1.3,3.9L334.4,20c-0.7,1.4-2.5,2-3.9,1.4L319,15.7c-1.4-0.7-2-2.4-1.3-3.9l5.7-11.7H330.2z M262.9,5.6l1.4-5.5h44.9   L305,16.5c-0.1,0.5-0.8,0.9-1.6,0.9c-0.2,0-0.4,0-0.7-0.1l-38.3-9.9c-0.6-0.1-1-0.5-1.3-0.9C263,6.4,262.8,6,262.9,5.6z M251.6,0.3   c0.3,1,0.2,2-0.3,2.9c-0.4,0.8-1,1.3-1.7,1.5l-50,12.7c-0.7,0.2-1.5,0-2.2-0.5c-0.8-0.6-1.4-1.4-1.6-2.4L192,0.1h9.3   c0.1,0.8,0.4,2.2,1.5,3.3c1.5,1.6,4.1,1.8,4.4,1.8L235.4,6c0,0,0,0,0,0c0.4,0,0.8-0.1,1-0.4c0.3-0.3,0.5-0.6,0.5-1l0.1-4.4h14.4   L251.6,0.3z M266.3,27.2l-71.4,18.2l4-24.6L251,7.5L266.3,27.2z M204.4,0.1h29.7L234,3l-26.6-0.8c-0.5,0-1.9-0.3-2.4-0.8   C204.6,1,204.4,0.5,204.4,0.1z M148.8,5.9c0.3,0.3,0.7,0.4,1.1,0.4c0.4,0,0.8-0.1,1.1-0.4l5.5-5.5c0.1-0.1,0.1-0.2,0.2-0.3h8.8   l22,22l-12.3,12.3L145.2,4.5l4.4-4.4h2.9l-3.7,3.7C148.2,4.4,148.2,5.3,148.8,5.9z M131.5,0.1l-0.1,0.7c-0.5,2.2-2.5,3.8-4.7,3.8   c-0.3,0-0.7,0-1-0.1L109,0.9c-0.6-0.1-1.2-0.4-1.7-0.8H131.5z M56.6,27.8L45,0.1h1.1l8,19c1.1,2.6,3.6,4.4,6.2,4.4   c0.8,0,1.5-0.2,2.3-0.5c3.2-1.3,4.6-5.3,3.2-8.8L59.8,0.1h2.5l5.5,13.2c1.1,2.6,3.6,4.4,6.2,4.4c0.8,0,1.5-0.2,2.3-0.5   c3.2-1.3,4.6-5.3,3.2-8.8L76,0.1h2.5l3.1,7.4c1.1,2.6,3.6,4.4,6.2,4.4c0.8,0,1.5-0.2,2.3-0.5c3.2-1.3,4.6-5.3,3.2-8.8l-1.1-2.6h1.1   l4.4,10.5L56.6,27.8z M101,12.5l1.6,3.7L57.1,35.2l-1.6-3.7L101,12.5z M49.3,0.1h7.2l6.4,15.3c0.8,2,0.1,4.2-1.6,4.9   c-0.3,0.1-0.7,0.2-1.1,0.2c-1.4,0-2.8-1-3.5-2.5L49.3,0.1z M65.5,0.1h7.2l4,9.5c0.8,2,0.1,4.2-1.6,4.9c-0.3,0.1-0.7,0.2-1.1,0.2   c-1.4,0-2.8-1-3.5-2.5L65.5,0.1z M90.5,3.8c0.8,2,0.1,4.2-1.6,4.9c-0.3,0.1-0.7,0.2-1.1,0.2c-1.4,0-2.8-1-3.5-2.5l-2.6-6.3h7.2   L90.5,3.8z M7.8,12.2l11.4,7.2l-16-2l-3.1-2.7V4.4l8.4,1l15.8,13.7L9.4,9.7c-0.7-0.4-1.6-0.2-2.1,0.5C6.9,10.8,7.1,11.8,7.8,12.2z    M16.1,22L8.8,38.7c-2.7-3-5.7-5.1-8.7-6.7V18.7L1.6,20c0.2,0.2,0.5,0.3,0.8,0.4L16.1,22z M1.5,51.7c2.3,3.7,3.4,8,3.4,12.4l-4-2.6   c0.5-2.2,0.8-4.4,0.8-6.5C1.8,53.8,1.7,52.8,1.5,51.7z M4.7,67.5C4.3,70.3,3.4,73,2,75.6l-1.9-1.2v-9.9L4.7,67.5z M0.4,78.2   c-0.1,0.1-0.2,0.2-0.2,0.3V78L0.4,78.2z M0.1,101.9l5,2.1l-0.6,1.2l-4.4-1.6V101.9z M0.1,117.8c1.2,1.1,2.2,2.4,3.1,3.9   c2.4,4.1,3.2,8.9,2,13.6c-0.9,3.4-2.7,6.4-5.1,8.6V117.8z M0.1,209.7l5.8,2.2l-5.8,15.4V209.7z M35.6,298.8c0,0,0.1,0,0.1,0   c0,0,0,0,0,0c0.1,0,0.2,0,0.3,0c0,0,0.1,0,0.1,0c0.1,0,0.2-0.1,0.3-0.1c0,0,0.1,0,0.1-0.1c0.1,0,0.1-0.1,0.2-0.2c0,0,0,0,0.1,0   c0,0,0,0,0,0c0,0,0,0,0,0c4.6-4.9,10.3-7.9,16.5-8.7l8.1,4.7l-23.6,11l-35.6,3l-2.1-7.9v-9.7l4,15c0.1,0.5,0.6,0.9,1.1,1.1   c0.1,0,0.2,0,0.4,0c0.4,0,0.8-0.2,1.1-0.5c7.5-8,18.1-10.9,28.6-7.6c0,0,0,0,0,0c0,0,0,0,0,0C35.4,298.8,35.5,298.8,35.6,298.8z    M35.4,290.5c3.2-1.4,6-3.6,8-6.5l6,3.4c-4.7,1.2-9.1,3.6-12.9,7.1L35.4,290.5z M59.1,289.5c2.1,0.2,4.2,0.6,6.3,1.2   c0.5,0.2,1.1,0,1.5-0.4c0.4-0.4,0.5-0.9,0.4-1.5l-11.4-42.8l2.7,0.2l11.7,43.8l-5.5,2.6L59.1,289.5z M63.7,287.2   c-3.3-0.7-6.6-0.9-9.8-0.6l-9-5.2c4.1-8.7,1-19.3-7.5-24.2c-2.8-1.6-6.1-2.5-9.3-2.5c-0.7,0-1.5,0.1-2.2,0.1l-0.4-1.4l-0.8-3   c7.2-7.4,17.3-10.1,27.2-7.3L63.7,287.2z M28.1,257.6c2.7,0,5.4,0.7,7.8,2.1c7.5,4.3,10,13.9,5.7,21.4c-2.8,4.8-8,7.8-13.6,7.8   c-2.7,0-5.4-0.7-7.8-2.1c-3.6-2.1-6.2-5.5-7.3-9.5c-1.1-4-0.5-8.3,1.6-11.9C17.3,260.6,22.5,257.6,28.1,257.6z M11.9,264   c-2.5,4.3-3.2,9.3-1.9,14.2c1.3,4.8,4.4,8.8,8.7,11.3c2.8,1.6,6.1,2.5,9.3,2.5c1.5,0,3.1-0.2,4.5-0.6l1,3.8   c-9.9-2.2-19.8,0.4-27.2,7.3l-6.2-23.3v-25.2c6.4-3.9,14.1-5,21.7-2.9l0.9,3.3l0.3,1C18.4,256.7,14.4,259.7,11.9,264z M0.1,324.8   c0.1-0.1,0.1-0.2,0.2-0.3c2-0.7,3.8-0.6,4.6,0.3c0.5,0.5,0.7,1.1,0.7,2c0,2-1.4,4.6-3.7,6.6c-0.6,0.6-1.2,1-1.8,1.4V324.8z    M23.4,375c1.2,4.4,4.7,7.6,7.1,9.5l-15.9,6l-3.6-3.5c-0.3-0.3-0.7-0.4-1-0.4c-0.2,0-0.4,0-0.5,0.1c-0.5,0.2-1,0.4-1.5,0.6   c-1.3,0.5-2.6,1-3.8,1.4c-0.2,0.1-0.4,0.1-0.6,0.2c-0.6,0.2-1.3,0.4-1.9,0.4c-0.4,0-0.5-0.1-0.5-0.1c-0.1-0.1-0.2-0.6-0.2-0.8   c-0.1-0.7-0.3-1.6-0.9-2.4v-36.2c0.5-0.2,1-0.5,1.5-0.6c1.8-0.7,3.8-1,5.7-1c7.1,0,13.7,4.7,16.4,11.7c1.5,3.9,1.6,8.2,0.4,12   c0,0.1-0.1,0.2-0.1,0.3c-0.1,0.4-0.1,0.8-0.2,1.1c-0.1,0.4-0.2,0.7-0.3,1.1C23.3,374.4,23.3,374.7,23.4,375z M43.6,396.8l0.9-0.4   l1.4,3.4h-1.1L43.6,396.8z M88.8,399.9h-7.2l-7.3-17.5l0,0l0,0l-2.8-6.6l6.1-2.6L88.8,399.9z M83.8,380l0.9-0.4l8.5,20.3h-1.1   L83.8,380z M72.1,384.9l6.3,15h-2.5L70,385.8L72.1,384.9z M72.6,399.9h-7.2l-4.9-11.8c0,0,0,0,0,0l0,0l-2.8-6.6l6.1-2.6L72.6,399.9   z M58.3,390.7l3.9,9.2h-2.5l-3.5-8.3L58.3,390.7z M56.4,399.9h-7.2l-2.5-6l0,0c0,0,0,0,0,0l-2.8-6.6l6.1-2.6L56.4,399.9z    M106,398.8c-0.7-1.1-0.9-2.4-0.7-3.6l2.7-12.3l11.5,2.5l-1,4.5c-0.2,0.8,0.3,1.6,1.1,1.8c0.1,0,0.2,0,0.3,0c0.7,0,1.3-0.5,1.5-1.2   l1-4.5l11.5,2.5l-2.5,11.4H107C106.6,399.6,106.3,399.2,106,398.8z M103,391.6c-1.9-3.7-2.5-7.8-1.6-11.7c0.8-3.9,3.1-7.4,6.3-10   l-2.3,10.8c0,0,0,0,0,0c0,0,0,0,0,0L103,391.6z M133.6,367.6c2.6,0.6,4.3,3.1,3.7,5.7l-2.7,12.3l-11.5-2.5l0.4-1.7   c0.2-0.8-0.3-1.6-1.1-1.8c-0.8-0.2-1.6,0.3-1.8,1.1l-0.4,1.7l-11.5-2.5l2.7-12.3c0.5-2.2,2.5-3.8,4.7-3.8c0.3,0,0.7,0,1,0.1   L133.6,367.6z M119.4,361.4c0.6-1.5,1.7-2.4,2.4-2.3l9.3,2c0.4,0.1,0.8,0.5,1,1.2c0.2,0.5,0.3,1.2,0.3,1.9L119.4,361.4z    M134.9,398.5l4.7-21.6c1.9,3.7,2.5,7.8,1.6,11.7C140.4,392.4,138.1,395.9,134.9,398.5z M156.4,398.3c-0.6-0.6-1.5-0.6-2.1,0   l-1.6,1.6h-2.9l7.7-7.7l7.7,7.7h-8.5C157,399.3,156.9,398.7,156.4,398.3z M204.3,399.4l0.8-28.9c0.6,0.3,1.3,0.4,2,0.5l27.8,0.8   l-0.8,28.1h-29.8C204.3,399.6,204.3,399.4,204.3,399.4z M230.8,366.4c0.1,0.8,0.3,1.6,0.7,2.4l-24.4-0.7c-0.5,0-1-0.2-1.4-0.6   c-0.4-0.4-0.6-0.9-0.5-1.4l0-0.9c0-1.1,0.9-2,2-1.9l23.8,0.7C230.8,364.6,230.7,365.4,230.8,366.4z M237.5,369.3   c-0.3-0.3-0.6-0.5-1-0.5l-1,0c0,0-0.1,0-0.1-0.1l4.7-1.2c0.7-0.2,1.5,0,2.2,0.5c0.8,0.6,1.4,1.4,1.6,2.4l7.5,29.4h-14.4l0.8-29.5   C237.9,370,237.8,369.6,237.5,369.3z M201.3,399.9H192l-3.9-15.2c-0.5-2,0.4-4,2-4.4l11.8-3l-0.6,22.1   C201.3,399.4,201.3,399.6,201.3,399.9z M285.7,383.4c1.1,0.3,1.8,1.1,2.6,3.1l1.3,2.8c0.2,0.4,0.5,0.7,1,0.8l18,4.7   c1,0.3,1.8,1.1,1.6,1.8l-0.8,3.3h-44.9l5-19.3c0.1-0.5,0.8-0.9,1.6-0.9c0.2,0,0.4,0,0.7,0.1L285.7,383.4z M277.6,378.2l7-10.1   l26.3,17.7l-3.8,5.5l-14.9-3.9l-1-2.1c-0.8-2-2-4.1-4.6-4.8L277.6,378.2z M323.6,399.9c0.5-0.9,1.5-1.4,2.5-1.4   c0.4,0,0.8,0.1,1.2,0.3l2.3,1.2H323.6z M341.9,397.5l-11.5-5.7c-0.7-0.3-1.2-0.9-1.4-1.7c-0.2-0.7-0.2-1.5,0.2-2.2l5.8-11.7   c0.5-1,1.5-1.7,2.6-1.7c0.4,0,0.8,0.1,1.2,0.3l11.5,5.7c0.7,0.3,1.2,0.9,1.4,1.7c0.2,0.7,0.2,1.5-0.2,2.2l-5.8,11.7   C345.1,397.5,343.3,398.2,341.9,397.5z M375.5,396.3l-1.7,3.5h-3.5c-0.1-0.4-0.4-0.7-0.7-0.9l-3.2-1.6l1.6-3.2   c0.4-0.7,0.1-1.6-0.7-2c-0.7-0.4-1.6-0.1-2,0.7l-1.6,3.2l-3.2-1.6c-0.7-0.4-1.6-0.1-2,0.7c-0.4,0.7-0.1,1.6,0.7,2l3.2,1.6l-0.5,1.1   H353c0,0,0,0,0,0l5.8-11.7c0.5-1,1.5-1.7,2.6-1.7c0.4,0,0.8,0.1,1.2,0.3l11.5,5.7c0.7,0.3,1.2,0.9,1.4,1.7   C375.9,394.8,375.8,395.6,375.5,396.3z M388.1,399.9l-6.6-0.8c-0.6-0.1-1.2,0.3-1.5,0.8h-3l1.1-2.2c0.7-1.4,0.8-3,0.3-4.5   c-0.5-1.5-1.5-2.7-3-3.4l-11.5-5.7c-0.8-0.4-1.7-0.6-2.5-0.6c-2.2,0-4.3,1.3-5.3,3.3l-5.8,11.7c-0.2,0.4-0.4,0.9-0.5,1.4h-3.7   c0.9-0.6,1.7-1.4,2.2-2.4l5.8-11.7c0.7-1.4,0.8-3,0.3-4.5c-0.5-1.5-1.5-2.7-3-3.4l-11.5-5.7c-0.8-0.4-1.7-0.6-2.5-0.6   c-2.2,0-4.3,1.3-5.3,3.3l-5.8,11.7c-0.7,1.4-0.8,3-0.3,4.5c0.5,1.5,1.5,2.7,3,3.4l10.8,5.3h-3.4l-7.8-3.8c-0.8-0.4-1.7-0.6-2.5-0.6   c-2.2,0-4.3,1.3-5.3,3.3l-0.5,1.1h-7.8l0.7-2.5c0.5-2.1-0.8-4.3-3-5.2l4.1-5.9c0.2-0.3,0.3-0.7,0.2-1.1c-0.1-0.4-0.3-0.7-0.6-1   L285,364.8c-0.7-0.5-1.6-0.3-2.1,0.4l-8.4,12.2l-2-0.5c-0.5-0.1-0.9-0.2-1.4-0.2c-2.2,0-4,1.3-4.5,3.2l-5.2,20h-6.8   c0-0.1,0-0.2,0-0.3l-7.6-29.9c-0.4-1.7-1.4-3.2-2.8-4.1c-1.4-1-3.1-1.4-4.7-0.9l-5.6,1.4c-0.1-0.9,0.2-1.7,0.5-2.2l0.8,0   c0.8,0,1.5-0.6,1.5-1.5c0-0.8-0.6-1.5-1.5-1.5l-27.8-0.8c-2.8-0.1-5,2.1-5.1,4.8l0,0.9c0,0.2,0,0.3,0,0.5c0,0.1,0,0.2,0,0.3   l-0.2,7.5l-12.6,3.2c-3.2,0.8-5.1,4.4-4.1,8l3.7,14.5h-19.4L158.6,389c-0.6-0.6-1.5-0.6-2.1,0l-10.9,10.9h-7.7   c3.2-2.9,5.4-6.6,6.2-10.7c1.2-5.7-0.1-11.8-3.8-16.7c0.1-3.3-1.9-6.3-5-7.5c0.1-1.3,0-2.6-0.4-3.7c-0.6-1.6-1.8-2.7-3.2-3l-9.3-2   c-2.5-0.5-5,1.5-6.1,4.6c-0.1,0-0.3,0-0.4,0c-3.2,0-6,1.9-7.2,4.8c-5.3,3-9.1,7.9-10.3,13.7c-1.2,5.7,0.1,11.8,3.8,16.7   c0,1.4,0.3,2.7,1,3.9h-6.8L85,372.7c-0.3-0.8-1.2-1.1-2-0.8c-0.8,0.3-1.1,1.2-0.8,2l1.3,3l-0.9,0.4l-3.3-8l-11.7,4.9l3.3,8   l-2.1,0.9l-3.3-8l-11.7,4.9l3.3,8l-2.1,0.9l-3.3-8L40,385.7l3.3,8l-0.9,0.4l-1.3-3c-0.3-0.8-1.2-1.1-2-0.8c-0.8,0.3-1.1,1.2-0.8,2   l3.2,7.6H0.1v-8.2c0.5,0.2,1,0.4,1.6,0.4c1,0,1.9-0.3,2.7-0.5c0.2-0.1,0.4-0.1,0.6-0.2c1.4-0.4,2.8-0.9,4.1-1.5   c0.2-0.1,0.3-0.1,0.5-0.2l3.6,3.5c0.3,0.3,0.7,0.4,1,0.4c0.2,0,0.4,0,0.5-0.1l19.5-7.4c0.6-0.2,0.9-0.7,1-1.3   c0-0.6-0.3-1.1-0.8-1.4c-0.1,0-6.4-3.4-8.1-8.8c0.1-0.3,0.2-0.6,0.3-0.9c0.1-0.4,0.2-0.8,0.2-1.3c1.4-4.5,1.2-9.4-0.5-13.9   c-3.1-8.2-10.8-13.6-19.2-13.6c-2.3,0-4.6,0.4-6.8,1.2c-0.1,0-0.3,0.1-0.4,0.2v-8c1.3-0.7,2.6-1.6,3.9-2.7c2.8-2.6,4.6-5.9,4.6-8.8   c0-1.7-0.5-3.1-1.5-4.1c-1.1-1.1-2.7-1.7-4.6-1.6c0.3-0.5,0.6-1,0.9-1.4l0.9-1.5l-4.2-1.7v-5.3c0.3,0.2,0.6,0.4,1,0.4   c0,0,0.1,0,0.1,0l37.1-3.2c0,0,0.1,0,0.1,0c0,0,0.1,0,0.1,0c0.1,0,0.1,0,0.2-0.1c0,0,0.1,0,0.1,0l25.7-12l8.7,5.1   c0.2,0.1,0.5,0.2,0.7,0.2c0.5,0,1-0.3,1.3-0.7c0.4-0.7,0.2-1.6-0.5-2l-6.9-4l4.8-2.2c0.7-0.3,1-1,0.8-1.7l-12.3-46   c-0.2-0.6-0.7-1-1.3-1.1l-4.8-0.4l-0.4-1.6c-0.1-0.5-0.5-0.9-1-1c-11.3-3.5-22.8-0.6-31,7.8c-7.8-2.2-15.7-1.3-22.5,2.3v-14.6   l9.1-24.3c0.3-0.8-0.1-1.6-0.9-1.9l-8.3-3.1v-58.9c3.8-2.8,6.7-6.9,8-11.8c1.4-5.4,0.6-11-2.3-15.8c-1.5-2.5-3.4-4.6-5.7-6.2v-7.1   l3.5,1.3l6.9,4.2l4,22.2l13,3.7l5.8-12.4l-14.8-17.5l1.1-7.3l0,0l3-8.4l0.1-0.3c0.1-0.6-0.1-1.4-0.7-2.2c-0.9-1.1-2.5-1.8-4.7-2   L16.1,88l-3.3,10.7l-6.1,2.8l-6.7-2.8v-7.8c3.4-2.4,6.4-5.5,8.7-9.1c5.9-9.3,6.8-20.8,2.4-30.9c-0.3-0.8-1.2-1.1-2-0.8   c-0.8,0.3-1.1,1.2-0.8,2c4,9.2,3.2,19.7-2.2,28.1c-1.7,2.7-3.8,5-6.1,6.9V83c1.3-1.4,2.6-2.9,3.6-4.5c2.3-3.6,3.6-7.5,4-11.4   c0-0.2,0.1-0.3,0-0.5c0.7-7.9-2-15.8-7.7-21.6v-9.6c2.8,1.7,5.5,3.9,7.9,7l1.5,2l9.7-21.9l5.9,0.7l0.3,0.2l-5.5,12.3c0,0,0,0,0,0   l-3.9,0c0,0,0,0,0,0c-0.6,0-1.1,0.3-1.4,0.9l-3.3,7.4c-0.3,0.8,0,1.6,0.8,2c0.2,0.1,0.4,0.1,0.6,0.1c0.6,0,1.1-0.3,1.4-0.9l2.9-6.5   l1.6,0l-2.6,5.9c-0.3,0.8,0,1.6,0.8,2c0.2,0.1,0.4,0.1,0.6,0.1c0.6,0,1.1-0.3,1.4-0.9l2.6-5.9l1.1,1.2l-2.9,6.5   c-0.3,0.8,0,1.6,0.8,2c0.2,0.1,0.4,0.1,0.6,0.1c0.6,0,1.1-0.3,1.4-0.9l3.3-7.4c0.2-0.5,0.1-1.2-0.3-1.6l-2.7-2.9l5.9-13.3l1.4,0.2   c0.1,0,0.1,0,0.2,0c0.6,0,1.1-0.3,1.4-0.9c0.3-0.6,0.1-1.3-0.4-1.7L10.1,2.8C9.9,2.6,9.6,2.5,9.3,2.5L0.1,1.3V0.1h41.6L53.8,29   l-2.2,0.9l3.9,9.3l51-21.4l-3.9-9.3l-2.2,0.9l-3.9-9.3h6.8c0,0.1,0.1,0.2,0.2,0.3c1.1,1.8,2.9,3,4.9,3.4L125,7.4   c0.5,0.1,1.1,0.2,1.6,0.2c3.2,0,6-1.9,7.2-4.8c1.4-0.8,2.6-1.7,3.8-2.7h7.8l-3.3,3.3c-0.3,0.3-0.4,0.7-0.4,1.1   c0,0.4,0.2,0.8,0.4,1.1l32.1,32.1c0.3,0.3,0.7,0.4,1.1,0.4s0.8-0.1,1.1-0.4l14.4-14.4c0.6-0.6,0.6-1.5,0-2.1l-21-21h19.2l3.9,15.2   c0.4,1.7,1.4,3.2,2.8,4.1c0.1,0.1,0.3,0.2,0.4,0.2l-4.5,27.5c-0.1,0.5,0.1,1,0.5,1.3c0.3,0.3,0.6,0.4,1,0.4c0.1,0,0.2,0,0.4,0   l75.9-19.3c0.5-0.1,0.9-0.5,1-1c0.2-0.5,0.1-1-0.2-1.4L253.3,5.6c0.2-0.3,0.5-0.7,0.6-1c0.7-1.3,0.8-2.9,0.6-4.4h6.7L260,4.9   c-0.3,1.2,0,2.4,0.7,3.5c0.7,1,1.8,1.7,3,2l38.3,9.9c0.5,0.1,0.9,0.2,1.4,0.2c2.2,0,4-1.3,4.5-3.2l4.5-17.2h7.7L315,10.5   c-1.4,2.9-0.3,6.5,2.6,7.9l11.5,5.7c0.8,0.4,1.7,0.6,2.5,0.6c2.2,0,4.3-1.3,5.3-3.3l5.8-11.7c1.4-2.9,0.3-6.5-2.6-7.9L337,0.1h3.4   l0.2,0.1c0.8,0.4,1.7,0.6,2.5,0.6c0.9,0,1.9-0.2,2.7-0.7h4c-0.4,2.5,0.8,5.1,3.1,6.3l11.5,5.7c0.8,0.4,1.7,0.6,2.5,0.6   c2.2,0,4.3-1.3,5.3-3.3l4.5-9.2h3c-0.2,0.6,0,1.2,0.4,1.6l8.3,7.2L379,30.8l2.5-0.2c0.1,0,9.5-0.5,18.4,4.7v9.5   c-1.3-1.3-2.7-2.4-4.3-3.4c-4.3-2.8-9.3-4.2-14.4-4.2c-4.9,0-9.6,1.3-13.7,3.7c-0.1,0-0.2,0.1-0.3,0.2c-3.5,2.1-6.4,5-8.7,8.5   c-2.3,3.5-3.6,7.4-4.1,11.5c0,0.1,0,0.2,0,0.3c-0.3,2.8-0.1,5.7,0.5,8.5c1.5,7,5.7,13,11.8,16.9c4.3,2.8,9.3,4.2,14.4,4.2   c4.9,0,9.6-1.3,13.7-3.8c0.1,0,0.1-0.1,0.2-0.1c1.8-1.1,3.4-2.3,4.9-3.8v4c-3.6,2.9-7.8,4.9-12.4,5.9c-7.8,1.7-15.8,0.3-22.5-4   c-6.6-4.2-11.2-10.7-13-18.3c-0.2-0.8-1-1.3-1.8-1.1c-0.8,0.2-1.3,1-1.1,1.8c1.9,7.9,6.5,14.7,13.1,19.3l-3.6,5.6l-9.4-6   c-0.7-0.4-1.6-0.2-2.1,0.5c-0.4,0.7-0.2,1.6,0.5,2.1l21.4,13.6c0.2,0.2,0.5,0.2,0.8,0.2c0.5,0,1-0.2,1.3-0.7   c0.4-0.7,0.2-1.6-0.5-2.1l-9.4-6l3.6-5.6c5,2.9,10.6,4.4,16.3,4.4c2.4,0,4.8-0.3,7.1-0.8c4.3-0.9,8.2-2.7,11.7-5.1v7.5l-3.4-1.4   l-0.7,1c-1.3,1.9-1.8,3.5-1.5,4.9c0.2,1,0.8,1.7,1.3,2l4.3,1.6v7c-2.1-1.5-4.4-2.6-6.9-3.2c-1.7-0.4-3.4-0.6-5.2-0.6   c-9.6,0-17.9,6.5-20.3,15.8c-1.4,5.6-0.4,11.2,2.3,15.8c-3.4,3-6,6.5-7.8,10.4c-0.2,0.4-0.2,0.9,0,1.3c0.2,0.4,0.6,0.7,1,0.8   l35.5,9c0.1,0,0.2,0,0.4,0c0.3,0,0.6-0.1,0.9-0.3c0,0,0.1-0.1,0.1-0.1v43.8l-4.1-1.5l1.8-4.7c0.1-0.4,0.1-0.8,0-1.1   c-0.2-0.4-0.5-0.6-0.8-0.8l-3.2-1.2l3.4-9.1c0.3-0.8-0.1-1.6-0.9-1.9l-31.5-11.9c-0.8-0.3-1.6,0.1-1.9,0.9l-3.4,9.1l-3.2-1.2   c-0.4-0.1-0.8-0.1-1.1,0c-0.4,0.2-0.6,0.5-0.8,0.8l-1.8,4.7l-12.6-4.7c-0.8-0.3-1.6,0.1-1.9,0.9l-13.1,34.9c-0.1,0.4-0.1,0.8,0,1.1   c0.2,0.4,0.5,0.6,0.8,0.8l14,5.3c0.8,0.3,1.6-0.1,1.9-0.9l3.2-8.4l1.8,0.7l-9.7,25.7c-0.3,0.8,0.1,1.6,0.9,1.9l31.5,11.9   c0.2,0.1,0.4,0.1,0.5,0.1c0.6,0,1.2-0.4,1.4-1l9.7-25.7l1.8,0.7l-3.2,8.4c-0.1,0.4-0.1,0.8,0,1.1c0.2,0.4,0.5,0.6,0.8,0.8l14,5.3   c0.2,0.1,0.3,0.1,0.5,0.1c0.2,0,0.4,0,0.6-0.1c0.4-0.2,0.6-0.5,0.8-0.8l3.7-9.9v14.1c-2.9,1.6-5.7,3.7-8.1,6.3   c-0.4,0.4-0.5,0.9-0.4,1.4l0.4,1.6l-3.9,2.8c-0.5,0.4-0.7,1-0.6,1.6l12.3,46c0,0.2,0.1,0.3,0.2,0.4v5.5l-26.7-11l-0.4,1.7   c-0.1,0.5-0.2,1.1-0.4,1.6c-1.3-1.4-2.8-2.1-4.4-2.1c0,0,0,0,0,0c-1.5,0-2.9,0.6-4,1.8c-2,2.1-3.1,5.6-2.9,9.5   c0.2,5.6,3,10.1,6.5,11c-0.9,4.8,1.2,9.9,5.5,12.9l-0.4,1c-0.9-0.2-1.8-0.2-2.7-0.2c-5.6,0-10.6,3.2-12.6,8.2l-0.6,1.4l26.2,10.8   l0.6-1.4c2.4-5.9,0.2-12.7-5.2-16.4l0.4-1c0.8,0.1,1.5,0.2,2.3,0.2c4.4,0,8.3-2.1,10.6-5.5c0.9,0.6,2.1,0.8,3.3,0.8   c1.5,0,3.2-0.4,4.9-1.3v8c-5.3,2.2-9.3,6.7-11,12.3c-0.1,0.2-0.2,0.4-0.2,0.6c0,0.2-0.1,0.3-0.1,0.5c-0.4,1.6-0.4,5.5,0.1,7   c0.1,0.4,0.2,0.8,0.3,1.2c0.1,0.2,0.2,0.5,0.3,0.7c0.2,0.5,0.4,1,0.6,1.5c0.3,0.6,0.6,1,0.9,1.4c0.1,0.2,0.3,0.4,0.4,0.6   c0.5,0.8,0.8,1.9,0.8,3.3l0,0.9c0,1,0,2,0,3c0,0.1-0.1,0.4-0.1,0.7c-0.2,0.8-0.4,1.9,0.2,2.9c0.2,0.4,0.7,0.8,1.6,1   c0.4,0.1,0.9,0.1,1.4,0c0,0,0.1,0,0.1,0c0.1,0.4,0.2,0.8,0.6,1.2c0.2,0.2,0.4,0.4,0.6,0.5c0,0.9,0.4,1.4,1.2,1.9   c0.1,0.1,0.2,0.1,0.3,0.2c0.1,0.1,0.2,0.5,0.2,0.9c0.1,0.7,0.3,1.8,1.1,2.6c0.2,0.2,0.4,0.4,0.7,0.5v8.3H388.1z M15.9,98.9l2.3-7.6   c1,0.2,1.4,0.6,1.5,0.7l-2.5,7.1L15.9,98.9z M29.8,126.3l-3.9,8.3l-8.8-2.5l-3.6-20l3.1-1.5L29.8,126.3z M16.5,102.1l-0.9,5.7   l-3.8,1.8l-4.7-2.9l1.4-2.7l5.3-2.5L16.5,102.1z M360.7,76.5c-1.4-2.2-2.4-4.7-3-7.3c-0.4-1.7-0.6-3.5-0.6-5.2l4.1,2.6   C360.4,70.1,360.3,73.5,360.7,76.5z M357.4,60.6c0.4-2.8,1.3-5.6,2.7-8.1l5.4,3.5c-1.5,2.5-2.7,5.1-3.5,7.7L357.4,60.6z    M375.4,58.7l-5.7-3.6c1.7-2.4,3.6-4.5,5.6-6.3l5,3.2C378.6,54,377,56.3,375.4,58.7z M382.8,53.5l7.1,4.5c-1.2,2.3-2.6,4.8-4.1,7.3   l-7.9-5C379.6,57.7,381.3,55.4,382.8,53.5z M373.8,61.2c-1.3,2.1-2.7,4.6-4.1,7.3l-5-3.2c0.8-2.5,1.9-5.1,3.4-7.7L373.8,61.2z    M376.3,62.8l7.9,5c-1.7,2.6-3.3,4.8-4.9,6.8l-7.1-4.5C373.4,67.9,374.7,65.4,376.3,62.8z M386.7,69.4l5.7,3.6   c-1.7,2.4-3.6,4.5-5.6,6.3l-5-3.2C383.6,74.1,385.2,71.8,386.7,69.4z M388.4,66.9c1.5-2.5,2.9-4.9,4.1-7.3l5,3.2   c-0.8,2.6-1.9,5.2-3.4,7.7L388.4,66.9z M393.8,56.9c0.8-1.8,1.5-3.6,2.1-5.2c0.6-1.7,1-3.2,1.2-4.5c1.2,2.1,1.8,4.7,1.7,7.7   c0,1.6-0.2,3.2-0.5,4.8L393.8,56.9z M393,50.8c-0.5,1.4-1.1,2.9-1.8,4.5l-6.5-4.1c4.3-4.9,7.6-7.3,9-7.3c0.1,0,0.2,0,0.2,0   C394.2,44.1,394.7,45.8,393,50.8z M382.2,49.5l-4.5-2.8c3.7-2.7,7.5-4.2,11-4.2c0.3,0,0.5,0,0.8,0.1   C387.3,44.1,384.7,46.6,382.2,49.5z M375,45l-4.1-2.6c3.1-1.4,6.5-2.2,10.1-2.2c0.9,0,1.7,0.1,2.5,0.2   C380.7,41.2,377.8,42.8,375,45z M372.7,47c-2,1.9-3.8,4-5.5,6.4l-5.4-3.5c1.7-2.4,3.8-4.4,6.2-5.9L372.7,47z M363.9,68.3l4.5,2.9   c-1.6,3.4-2.8,6.9-3.3,9.7C363.3,77.7,362.9,73.2,363.9,68.3z M370.9,72.8l6.5,4.1c-4.3,4.9-7.6,7.3-9,7.3c-0.1,0-0.2,0-0.2,0   C367.4,83.7,367.9,79.5,370.9,72.8z M380,78.6l4.5,2.8c-3.7,2.7-7.5,4.2-11,4.2c-0.3,0-0.5,0-0.8-0.1C374.9,84,377.4,81.5,380,78.6   z M387.1,83.1l4,2.6c-3.1,1.4-6.5,2.2-10.1,2.2c-0.9,0-1.7-0.1-2.5-0.2C381.4,86.9,384.4,85.3,387.1,83.1z M389.5,81.1   c2-1.9,3.8-4,5.5-6.4l4.9,3.1v0.9c-1.6,2.1-3.6,3.9-5.7,5.3L389.5,81.1z M396.6,72.2c1.4-2.3,2.5-4.7,3.3-7.1v9.2L396.6,72.2z    M399.9,101.8v1.7l-2.6-1c-0.1-0.2,0-0.7,0.4-1.6L399.9,101.8z M390.9,118.7c-1-0.3-2-0.4-3.1-0.4c-5.7,0-10.7,3.9-12.1,9.4   c-1.7,6.7,2.4,13.4,9,15.1c1,0.3,2,0.4,3.1,0.4c5.7,0,10.6-3.8,12-9.3v10.2c-3.2,2.9-7.5,4.7-12,4.7c-1.5,0-3-0.2-4.4-0.6   c-9.6-2.4-15.4-12.2-13-21.8c2-8,9.2-13.5,17.4-13.5c1.5,0,3,0.2,4.4,0.6c2.9,0.7,5.5,2.2,7.7,4.1v10.2   C398.8,123.5,395.5,119.9,390.9,118.7z M397,133.1c-1.1,4.2-4.8,7.1-9.1,7.1c-0.8,0-1.6-0.1-2.3-0.3c-5-1.3-8.1-6.4-6.8-11.5   c1.1-4.2,4.8-7.1,9.1-7.1c0.8,0,1.6,0.1,2.3,0.3C395.2,122.9,398.3,128.1,397,133.1z M399.9,147.9v5.8c-0.3-1.7-0.8-3.3-1.3-4.9   C399,148.5,399.4,148.2,399.9,147.9z M397.5,159.6l-31.9-8.1c1.5-2.8,3.5-5.4,6-7.6c2.7,3.4,6.5,6,11.1,7.1   c1.7,0.4,3.4,0.6,5.2,0.6c2.8,0,5.5-0.6,8-1.6C396.9,153.3,397.5,156.5,397.5,159.6z M385.8,230.2c-0.2-0.4-0.5-0.6-0.8-0.8   l-40.8-15.3c-0.8-0.3-1.6,0.1-1.9,0.9l-3.2,8.4l-11.2-4.2l12.1-32l12.6,4.7c0.4,0.1,0.8,0.1,1.1,0c0.4-0.2,0.6-0.5,0.8-0.8l1.8-4.7   l3.2,1.2l0,0l31.5,11.9c0,0,0,0,0,0l3.2,1.2l-1.8,4.7c-0.1,0.4-0.1,0.8,0,1.1c0.2,0.4,0.5,0.6,0.8,0.8l6.6,2.5V228l-6,16l-11.2-4.2   l3.2-8.4C386,231,385.9,230.6,385.8,230.2z M377.8,230l-9.2,24.3L340,243.5l9.2-24.3L377.8,230z M361.9,185.2l2.9-7.7l28.7,10.8   l-2.9,7.7L361.9,185.2z M394.6,258.3c1.6-1.7,3.4-3.1,5.3-4.3v24.1L394.6,258.3z M399.9,289.8v9.7l-9.4-35l2.2-1.5L399.9,289.8z    M375.6,346.9c4.4,2.5,6.6,7.4,5.5,11.9l-20.4-8.4c1.9-3.1,5.3-5,9.2-5c1.1,0,2.1,0.1,3.2,0.4l1.3,0.4l2.4-5.8l-1.1-0.7   c-4.5-2.5-6.4-7.8-4.6-12.3c0.1-0.1,0.2-0.4,4.3-18.2l24.6,10.2c-9.6,15.5-9.7,15.7-9.8,15.9c-1.5,3.5-5,5.8-9.1,5.8   c-1,0-1.9-0.1-2.8-0.4l-1.3-0.3l-2.4,5.8L375.6,346.9z M368.3,325.9c-2-0.4-4.1-3.7-4.3-8.3c-0.1-3,0.7-5.8,2.1-7.3   c0.6-0.6,1.2-0.9,1.9-0.9c0,0,0,0,0,0c1.2,0,2.5,1.2,3.5,3.1C370.1,318.2,368.8,324.1,368.3,325.9z M399.9,325.2v9.7   c-2.7,1.7-5.4,2.1-6.8,1.2C394,334.6,396.9,329.9,399.9,325.2z M398.3,382.9c-0.1-0.1-0.3-0.1-0.4-0.1c-0.1-0.5-0.4-1.1-1-1.5   c-0.6-0.4-1.4-0.5-2.3-0.4c0-0.1,0-0.2,0.1-0.3c0.1-0.4,0.2-0.8,0.2-1.3c0-1,0-2.1,0-3.1l0-0.9c0-2-0.4-3.5-1.2-4.8   c-0.2-0.3-0.4-0.6-0.6-0.8c-0.2-0.3-0.4-0.5-0.5-0.8c-0.2-0.4-0.3-0.9-0.5-1.3c-0.1-0.3-0.2-0.5-0.3-0.8c-0.1-0.2-0.2-0.5-0.3-0.9   c0-0.1-0.1-0.2-0.1-0.3c-0.2-0.8-0.3-3.8,0-5.2c0,0,0-0.1,0-0.1c0-0.1,0-0.2,0-0.3c0-0.1,0.1-0.2,0.1-0.2c0-0.1,0-0.1,0.1-0.2   c1.4-4.4,4.3-7.9,8.2-10v35.8c-0.1-0.1-0.2-0.2-0.3-0.3c-0.1,0-0.1-0.1-0.2-0.1C399.7,384.2,399.3,383.4,398.3,382.9z"/>
	<path class="st0" d="M93.6,68.2c1.4,3.6,3.9,6.3,6.1,8.2c-0.2,0.1-0.3,0.1-0.3,0.1c-0.4,0.1-0.8,0.5-0.9,0.9   c-0.2,0.4-0.1,0.9,0.1,1.3c1.6,2.5,4.9,4.9,7.4,6.4c-0.1,0-0.1,0-0.1,0c-0.4,0.2-0.7,0.6-0.9,1c-0.1,0.5,0,0.9,0.3,1.3   c3.6,4.4,8,5.1,10.3,5.1c0.6,0,1.2,0,1.6-0.1c1.3,1.4,5.2,6.2,8.7,10.8l-0.4,1.4l2.9,0.8l7.4-27.9l-2.9-0.8l-4.8,17.9   c0,0-0.1-0.1-0.1-0.1l-4.6-5.3c1.4-5.8-0.9-10-1-10.2c-0.3-0.6-1-0.9-1.6-0.7c-0.8-4.3-3.8-7.1-3.9-7.3c-0.3-0.3-0.8-0.5-1.2-0.4   c-1.2-5.9-4.8-7.6-5.1-7.7c-0.3-0.1-0.7-0.2-1-0.1c-2.6-3.2-6.3-4.8-8.6-5.3c-0.7-0.2-1.4,0.2-1.7,0.9c0,0,0,0,0,0.1   c-2.1-1-4.1-1.3-5.7-1.3c-1.8,0-2.9,0.4-3,0.4c-0.7,0.2-1.1,0.9-1,1.6c0.4,2.6,2.4,5.4,4.2,7.5C93.5,67,93.4,67.7,93.6,68.2z    M93.1,60c0.2,0,0.4,0,0.6,0c2.7,0,6.9,1.2,11.1,7.1c0.4,0.6,1.2,0.8,1.9,0.5c0.7-0.3,1-1.1,0.8-1.8c0-0.1-0.3-0.9-0.9-2.1   c1.7,1.6,3.1,4,3.3,7.3c0,0.8,0.6,1.4,1.4,1.4c0.8,0,1.4-0.5,1.6-1.2c0,0,0-0.1,0-0.2c0.4,1.7,0.4,4,0,6.9c-0.1,0.7,0.3,1.4,1,1.6   c0.7,0.2,1.4-0.1,1.8-0.7c0.1-0.2,0.8-1.5,1.3-3c1,1.9,1.8,4.7,0.5,7.7c-0.3,0.6-0.1,1.4,0.5,1.8c0.6,0.4,1.3,0.4,1.8-0.1   c0.1-0.1,0.6-0.5,1.1-1.1c0.1,1.4,0.1,3.1-0.5,5c-0.1,0.5,0,1,0.3,1.4l4.8,5.5l0.1,2c-6.8-8.7-7.3-8.7-8.1-8.7   c-0.1,0-0.3,0-0.4,0.1c-0.1,0-0.7,0.1-1.6,0.1c-1.7,0-4-0.4-6.2-2.2c0.3,0,0.6-0.1,0.9-0.1c0.7,0,1.3-0.5,1.4-1.2   c0.1-0.7-0.2-1.4-0.8-1.7c-0.1,0-5-2.4-8.1-5.3c0.5,0,0.9,0.2,1.2,0.3c0.3,0.2,0.5,0.2,0.5,0.2c0.7,0.4,1.6,0.1,2-0.6   c0.4-0.7,0.1-1.6-0.6-2c-0.2-0.1-0.3-0.2-0.4-0.2c-1.3-0.7-4.8-2.9-7.4-6.5c0.6,0,1-0.3,1.3-0.7c0.4-0.6,0.2-1.4-0.3-1.9   C97.7,66.4,94.3,63,93.1,60z"/>
	<path class="st0" d="M126.4,28.1c5.3,0,9.6-4.4,9.6-9.8s-4.3-9.8-9.6-9.8c-5.3,0-9.6,4.4-9.6,9.8S121.1,28.1,126.4,28.1z    M126.4,11.5c3.6,0,6.6,3,6.6,6.8s-3,6.8-6.6,6.8c-3.6,0-6.6-3-6.6-6.8S122.7,11.5,126.4,11.5z"/>
	<path class="st0" d="M106.4,47.4v2.4c0,0.6,0.4,1.2,1,1.4l18.5,6.7c0,0,0,0,0,0c0.2,0.1,0.3,0.1,0.5,0.1s0.3,0,0.5-0.1c0,0,0,0,0,0   l18.5-6.7c0.6-0.2,1-0.8,1-1.4v-2.4c1.3-0.4,2.3-1.2,2.9-2.4c1.2-2.3,2.3-5.1,1.6-8.2c-0.3-1.3-0.8-2.5-1.7-3.9   c-0.3-0.5-1.4-2.1-2.8-2.7v-6.2c0-0.5-0.2-1-0.7-1.2c-0.4-0.3-0.9-0.3-1.4-0.1L126.4,30l-17.9-7.3c-0.5-0.2-1-0.1-1.4,0.1   c-0.4,0.3-0.7,0.7-0.7,1.2v6.2c-1.4,0.6-2.5,2.1-2.8,2.7c-0.9,1.3-1.4,2.5-1.7,3.9c-0.7,3.1,0.4,5.9,1.6,8.2   C104.1,46.2,105.1,47,106.4,47.4z M148,37.5c0.5,2.2-0.3,4.2-1.3,6.1c-0.3,0.6-0.8,0.8-1.2,0.9c-0.6,0.1-1.3,0-1.9-0.4   c-0.5-0.4-1.2-1.4-1.4-2c0-0.1,0-0.4,0-0.6c0.4-0.1,0.7-0.4,0.9-0.9c0.2-0.5,0.1-1.1-0.2-1.5c0.4-0.1,0.7-0.3,0.9-0.6   c0.3-0.4,0.3-0.9,0.2-1.3c-0.2-0.5-0.2-0.7-0.3-0.7c0,0,0.2,0,0.3,0.1c0.6,0.3,1.3,0.2,1.7-0.2c0.5-0.4,0.6-1.1,0.4-1.7   c-0.1-0.3-0.2-0.6-0.2-1c0.2,0.2,0.5,0.5,0.7,0.9C147.3,35.6,147.7,36.5,148,37.5z M143.4,32c-0.2,0.5-0.3,1-0.4,1.6   c-0.5,0.1-0.9,0.4-1.3,0.7c-0.7,0.7-0.9,1.6-0.9,2.3c-0.5,0.3-0.9,0.8-1.1,1.7c-0.1,0.4,0,0.8,0.1,1.3c-0.7,1-0.6,2.5-0.4,3.2   c0.3,1.2,1.4,2.8,2.4,3.6c0.5,0.4,1,0.6,1.6,0.8v1.4l-15.5,5.6V32.7l15.5-6.3V32z M124.9,32.7v21.7l-15.5-5.6v-1.4   c0.5-0.2,1.1-0.5,1.6-0.8c1-0.8,2.1-2.4,2.4-3.6c0.2-0.8,0.2-2.2-0.4-3.2c0.1-0.4,0.1-0.9,0.1-1.3c-0.1-0.9-0.6-1.5-1.1-1.7   c0-0.7-0.2-1.6-0.9-2.3c-0.4-0.3-0.8-0.6-1.3-0.7c0-0.6-0.2-1.1-0.4-1.6v-5.7L124.9,32.7z M104.8,37.5c0.2-1,0.6-1.9,1.3-2.9   c0.2-0.3,0.4-0.6,0.7-0.9c0,0.3,0,0.7-0.2,1c-0.3,0.6-0.1,1.3,0.4,1.7c0.5,0.4,1.2,0.5,1.7,0.2c0.1-0.1,0.3-0.1,0.3-0.1   c0,0.1,0,0.3-0.2,0.8c-0.2,0.4-0.1,0.9,0.2,1.3c0.2,0.3,0.5,0.5,0.9,0.6c-0.3,0.4-0.4,1-0.2,1.5c0.2,0.4,0.5,0.7,0.9,0.9   c0,0.2,0,0.4,0,0.6c-0.2,0.6-0.8,1.6-1.4,2c-0.6,0.4-1.3,0.6-1.9,0.4c-0.4-0.1-0.8-0.3-1.2-0.9C105.1,41.7,104.3,39.6,104.8,37.5z"/>
	<path class="st0" d="M56.5,207.1c0-0.4-0.2-0.8-0.5-1.1l-13.1-11.8c-0.6-0.5-1.5-0.5-2.1,0.1l-10.6,10.9c-0.3,0.3-0.4,0.7-0.4,1.1   c0,0.4,0.2,0.7,0.4,1c-5.3,2.9-15,8.4-15.5,8.7c-0.6,0.3-0.8,1-0.7,1.6c1.4,7,0,12.5-1.3,15.7c-1.6-0.3-3.3,0.2-4.5,1.3   c-0.9,0.9-1.4,2.1-1.3,3.4c0,1.3,0.6,2.4,1.5,3.3l0.9,0.8c0.9,0.8,2,1.2,3.3,1.2c1.3,0,2.6-0.5,3.5-1.5c1.2-1.2,1.6-2.9,1.2-4.4   c2.6-1.1,6.8-2.5,12.2-2.5c1.4,0,2.7,0.1,4.1,0.3c0.6,0.1,1.2-0.2,1.5-0.8c0.2-0.5,5.5-10.2,8.1-15.5l0.1,0.1   c0.3,0.3,0.6,0.4,1,0.4c0.4,0,0.8-0.2,1.1-0.5L56,208.2C56.3,207.9,56.5,207.5,56.5,207.1z M14,239.8c-0.7,0.7-1.9,0.7-2.6,0.1   l-0.9-0.8c-0.3-0.3-0.5-0.7-0.5-1.1c0-0.4,0.2-0.8,0.5-1.2c0.3-0.3,0.8-0.5,1.3-0.5c0.4,0,0.7,0.1,1,0.3c0.3,0.2,0.7,0.3,1.1,0.2   c0,0.4,0.1,0.7,0.3,1C14.6,238.3,14.6,239.2,14,239.8z M33,232.2c-1.2-0.1-2.3-0.2-3.4-0.2c-6.6,0-11.6,1.8-14.3,3.1   c1.4-3.3,3.2-9.4,2-17.1c2.8-1.6,11-6.3,15.2-8.5l8.4,7.6C38.7,221.3,34.4,229.5,33,232.2z M44.3,215.9l-10.9-9.8l8.5-8.7l10.9,9.8   L44.3,215.9z"/>
	<path class="st0" d="M26.8,217.5c-3,0-5.4,2.4-5.4,5.2c0,2.9,2.4,5.2,5.4,5.2c3,0,5.4-2.4,5.4-5.2   C32.2,219.9,29.8,217.5,26.8,217.5z M26.8,225c-1.3,0-2.4-1-2.4-2.2c0-1.2,1.1-2.2,2.4-2.2c1.3,0,2.4,1,2.4,2.2   C29.2,224,28.2,225,26.8,225z"/>
	<path class="st0" d="M77.7,249.5c3.7,0,6.9-3.6,8.9-9.3c1.6,0.3,3.1,0.5,4.5,0.5c4.9,0,7.1-1.9,8-3.5c1.6-2.8,0.7-6.7-2.6-11   c-0.3-0.4-0.7-0.9-1.1-1.3c0.4-0.4,0.7-0.9,1.1-1.3c3.3-4.3,4.2-8.2,2.6-11c-0.9-1.6-3.1-3.5-8-3.5c-1.4,0-2.9,0.2-4.5,0.5   c-2-5.8-5.2-9.3-8.9-9.3c-3.7,0-6.9,3.6-8.9,9.3c-1.6-0.3-3.1-0.5-4.5-0.5c-4.9,0-7.1,1.9-8,3.5c-1.9,3.2-0.4,7.8,3.6,12.4   c-4,4.6-5.4,9.2-3.6,12.4c0.9,1.6,3.1,3.5,8,3.5c1.4,0,2.9-0.2,4.5-0.5C70.8,245.9,74,249.5,77.7,249.5z M77.7,246.5   c-2.1,0-4.3-2.6-6-7c1.9-0.5,3.9-1.2,6-2.1c2,0.9,4,1.6,6,2.1C82.1,243.9,79.8,246.5,77.7,246.5z M69.5,224.8   c0-1.6,0.1-3.2,0.2-4.7c1.2-0.9,2.5-1.7,3.9-2.5c1.4-0.8,2.8-1.5,4.1-2.1c1.4,0.6,2.8,1.3,4.1,2.1c1.4,0.8,2.7,1.6,3.9,2.5   c0.1,1.5,0.2,3,0.2,4.6c0,1.6-0.1,3.2-0.2,4.6c-1.2,0.9-2.6,1.7-3.9,2.5c-1.4,0.8-2.8,1.5-4.1,2.1c-1.4-0.6-2.8-1.3-4.1-2.1   c-1.4-0.8-2.7-1.6-3.9-2.5C69.5,227.9,69.5,226.4,69.5,224.8z M66.5,227c-0.9-0.7-1.7-1.5-2.5-2.2c0.8-0.7,1.6-1.5,2.5-2.2   c0,0.7,0,1.5,0,2.2C66.5,225.5,66.5,226.3,66.5,227z M70.2,216.2c0.2-1.2,0.4-2.2,0.7-3.3c1,0.3,2.1,0.6,3.2,1   c-0.7,0.3-1.3,0.7-2,1.1C71.4,215.4,70.8,215.8,70.2,216.2z M81.4,213.9c1.1-0.4,2.1-0.7,3.2-1c0.3,1,0.5,2.1,0.7,3.3   c-0.6-0.4-1.3-0.8-1.9-1.2C82.7,214.6,82,214.3,81.4,213.9z M88.9,222.5c0.9,0.7,1.7,1.5,2.5,2.2c-0.8,0.8-1.6,1.5-2.5,2.2   c0-0.7,0-1.5,0-2.2C89,224,89,223.2,88.9,222.5z M85.3,233.3c-0.2,1.2-0.4,2.2-0.7,3.3c-1-0.3-2.1-0.6-3.2-1c0.7-0.3,1.3-0.7,2-1.1   C84,234.1,84.6,233.7,85.3,233.3z M72.1,234.5c0.7,0.4,1.3,0.7,2,1.1c-1.1,0.4-2.1,0.7-3.2,1c-0.3-1-0.5-2.1-0.7-3.3   C70.8,233.7,71.4,234.1,72.1,234.5z M96.6,235.6c-0.7,1.3-2.7,2-5.4,2c-1.1,0-2.3-0.1-3.6-0.4c0.5-1.9,0.9-4,1.1-6.2   c1.8-1.3,3.4-2.7,4.8-4.1c0.3,0.3,0.5,0.6,0.8,0.9C96.7,231.1,97.5,234,96.6,235.6z M91.1,211.9c2.7,0,4.7,0.7,5.4,2   c1,1.7,0.1,4.5-2.3,7.7c-0.2,0.3-0.5,0.6-0.8,0.9c-1.4-1.4-3-2.8-4.8-4.1c-0.2-2.2-0.6-4.3-1.1-6.2C88.8,212,90,211.9,91.1,211.9z    M77.7,203c2.1,0,4.3,2.6,6,7c-1.9,0.5-3.9,1.2-6,2.1c-2-0.9-4-1.6-6-2.1C73.4,205.6,75.6,203,77.7,203z M58.9,213.9   c0.7-1.3,2.7-2,5.4-2c1.1,0,2.3,0.1,3.6,0.4c-0.5,1.9-0.9,4-1.1,6.2c-1.8,1.3-3.4,2.7-4.8,4.1C59,218.9,57.8,215.7,58.9,213.9z    M64.3,237.6c-2.7,0-4.7-0.7-5.4-2c-1.1-1.8,0.1-5.1,3.1-8.6c1.4,1.4,3,2.8,4.8,4.1c0.2,2.2,0.6,4.3,1.1,6.2   C66.6,237.5,65.4,237.6,64.3,237.6z"/>
	<path class="st0" d="M378.3,286.7c0-0.5-0.3-1-0.8-1.2l-21.4-11.3c0-1.3-0.4-2.6-1.3-3.8l-16-20.5c-1.2-1.5-3-2.5-4.8-2.5   c-1.1,0-2.2,0.4-3,1l-0.9,0.7c-2.9-1.3-6.1-1.9-9.4-1.9c-5.2,0-10.2,1.7-14.3,4.9c-6.9,5.4-10,14-8.7,22.2l-0.9,0.7   c-1.1,0.9-1.8,2.3-1.9,3.8c-0.1,1.5,0.4,2.9,1.4,4.1l16,20.5c0.8,1,1.7,1.7,2.8,2.1c0,0.2,0,0.4,0,0.5l5.7,23.5   c0.1,0.5,0.5,0.9,1,1.1c0.2,0.1,0.3,0.1,0.5,0.1c0.3,0,0.7-0.1,0.9-0.3l54.5-42.5C378.1,287.7,378.3,287.2,378.3,286.7z M334,250.5   c0.9,0,1.8,0.5,2.4,1.3l16,20.5c1,1.3,1,3,0,3.7l-15.2,11.8c5.8-5.6,8.2-13.7,6.7-21.4c0-0.2,0-0.3-0.1-0.5   c-0.7-3.4-2.2-6.7-4.5-9.6c-1.8-2.3-3.9-4.2-6.3-5.7C333.4,250.6,333.7,250.5,334,250.5z M305.8,284.5l4-3.1c1.5,1.8,3.2,3.4,5,4.8   l-3.4,2.7C309.3,287.8,307.4,286.3,305.8,284.5z M305.1,264.3c-0.2-2.3,0-4.4,0.6-6.1c0.3,1,0.7,2,1.2,3.2c0.6,1.3,1.3,2.7,2.1,4.1   l-3.2,2.5C305.5,266.8,305.2,265.6,305.1,264.3z M339.8,278.9c0-0.6,0-1.2-0.1-1.9c-0.2-1.8-0.6-3.6-1.2-5.5l2.8-2.2   C341.6,272.6,341,275.9,339.8,278.9z M308.2,254.6C308.2,254.6,308.2,254.6,308.2,254.6c0,0,0.1,0,0.1,0c1.2,0,4.1,1.7,8,5.4   l-4.8,3.8C308.7,258.7,307.7,255.4,308.2,254.6z M336.7,277.3c0.2,2.3,0,4.4-0.6,6.1c-0.7-2.2-1.9-4.8-3.4-7.4l3.2-2.5   C336.3,274.8,336.6,276.1,336.7,277.3z M318.5,262.1c1.4,1.5,2.9,3.2,4.5,5.2l-6,4.7c-1.5-2-2.8-3.9-3.9-5.6L318.5,262.1z    M324.8,269.6c1.5,2,2.8,3.9,3.9,5.6l-5.4,4.2c-1.4-1.5-2.9-3.2-4.5-5.2L324.8,269.6z M330.3,277.9c2.8,5,3.8,8.4,3.3,9.1   c0,0,0,0,0,0c0,0,0,0-0.1,0c-1.2,0-4.1-1.7-8-5.4L330.3,277.9z M331.1,273.4c-1.3-2-2.6-4-3.9-5.6l4.3-3.3c1.4,2,2.5,4,3.4,6   L331.1,273.4z M325.4,265.4c-1.4-1.8-3-3.5-4.5-5.2l3.7-2.9c1.8,1.3,3.5,2.9,5,4.8L325.4,265.4z M310.7,268.2   c1.2,1.8,2.5,3.7,3.9,5.6l-4.3,3.3c-1.4-2-2.5-4-3.4-6L310.7,268.2z M316.4,276.2c1.4,1.8,3,3.5,4.5,5.2l-3.7,2.9   c-1.8-1.3-3.5-2.9-5-4.8L316.4,276.2z M323.1,283.5c2.2,2.1,4.4,3.9,6.4,5.1c-0.3,0-0.7,0.1-1.1,0.1c-2.7,0-5.6-1-8.5-2.7   L323.1,283.5z M337.3,268.6c-0.9-2-2.1-4.1-3.5-6l4-3.1c1.4,2,2.3,4.2,2.9,6.5L337.3,268.6z M332,260.3c-1.5-1.8-3.2-3.4-5-4.8   l3.4-2.7c2.1,1.1,3.9,2.6,5.5,4.4L332,260.3z M318.7,258.1c-2.2-2.1-4.4-3.9-6.3-5.1c0.3,0,0.7-0.1,1.1-0.1c2.7,0,5.6,1,8.5,2.6   L318.7,258.1z M304.5,273c0.9,2,2.1,4.1,3.5,6l-4,3.1c-1.4-2-2.3-4.2-2.9-6.5L304.5,273z M317.3,288c2.2,1.4,4.6,2.5,6.8,3.1   c-1,0.1-2,0.2-3,0.2c-2.3,0-4.5-0.4-6.6-1.1L317.3,288z M327.3,251.4l-2.8,2.2c-2.2-1.4-4.5-2.5-6.8-3.1c1-0.1,2-0.2,3-0.2   C323,250.3,325.2,250.7,327.3,251.4z M302,262.8c0,0.6,0,1.2,0.1,1.9c0.2,1.8,0.6,3.6,1.2,5.4l-2.8,2.2   C300.2,269,300.8,265.8,302,262.8z M298.7,281.2c-0.5-0.6-0.8-1.4-0.7-2.2c0-0.6,0.2-1,0.6-1.4c0.8,2.7,2.1,5.2,3.9,7.5   c2.3,2.9,5.2,5.2,8.4,6.8c0,0,0,0,0,0c3.1,1.5,6.6,2.3,10.3,2.3c4.5,0,8.7-1.2,12.4-3.6l-15.3,11.9c-0.4,0.3-0.9,0.4-1.2,0.4   c-0.9,0-1.8-0.5-2.4-1.3L298.7,281.2z M323.2,326.7l-4.9-20.3l1.8-1.4c0,0,0,0,0,0l34.2-26.6c0,0,0,0,0,0l1.3-1l18.5,9.8   L323.2,326.7z"/>
	<path class="st0" d="M330.3,306.4c0.7-0.5,0.8-1.5,0.3-2.1c-0.5-0.7-1.5-0.8-2.1-0.3L326,306c-0.7,0.5-0.8,1.5-0.3,2.1   c0.3,0.4,0.7,0.6,1.2,0.6c0.3,0,0.6-0.1,0.9-0.3L330.3,306.4z"/>
	<path class="st0" d="M338.8,297.9c-0.5-0.7-1.5-0.8-2.1-0.3l-2.5,1.9c-0.7,0.5-0.8,1.5-0.3,2.1c0.3,0.4,0.7,0.6,1.2,0.6   c0.3,0,0.6-0.1,0.9-0.3l2.5-1.9C339.2,299.5,339.3,298.5,338.8,297.9z"/>
	<path class="st0" d="M347.1,291.4c-0.5-0.7-1.5-0.8-2.1-0.3l-2.5,1.9c-0.7,0.5-0.8,1.5-0.3,2.1c0.3,0.4,0.7,0.6,1.2,0.6   c0.3,0,0.6-0.1,0.9-0.3l2.5-1.9C347.5,293,347.6,292.1,347.1,291.4z"/>
	<path class="st0" d="M353.3,284.7l-2.5,1.9c-0.7,0.5-0.8,1.5-0.3,2.1c0.3,0.4,0.7,0.6,1.2,0.6c0.3,0,0.6-0.1,0.9-0.3l2.5-1.9   c0.7-0.5,0.8-1.5,0.3-2.1C354.9,284.3,353.9,284.2,353.3,284.7z"/>
	<path class="st0" d="M331.2,311.1l-2.8,2.2c-0.7,0.5-0.8,1.5-0.3,2.1c0.3,0.4,0.7,0.6,1.2,0.6c0.3,0,0.6-0.1,0.9-0.3l2.8-2.2   c0.7-0.5,0.8-1.5,0.3-2.1C332.8,310.7,331.8,310.6,331.2,311.1z"/>
	<path class="st0" d="M340.7,303.7l-2.8,2.2c-0.7,0.5-0.8,1.5-0.3,2.1c0.3,0.4,0.7,0.6,1.2,0.6c0.3,0,0.6-0.1,0.9-0.3l2.8-2.2   c0.7-0.5,0.8-1.5,0.3-2.1C342.3,303.3,341.4,303.2,340.7,303.7z"/>
	<path class="st0" d="M350.3,296.2l-2.8,2.2c-0.7,0.5-0.8,1.5-0.3,2.1c0.3,0.4,0.7,0.6,1.2,0.6c0.3,0,0.6-0.1,0.9-0.3l2.8-2.2   c0.7-0.5,0.8-1.5,0.3-2.1C351.9,295.9,350.9,295.7,350.3,296.2z"/>
	<path class="st0" d="M357.9,293.7c0.3,0,0.6-0.1,0.9-0.3l2.8-2.2c0.7-0.5,0.8-1.5,0.3-2.1c-0.5-0.7-1.5-0.8-2.1-0.3L357,291   c-0.7,0.5-0.8,1.5-0.3,2.1C357,293.5,357.5,293.7,357.9,293.7z"/>
	<ellipse transform="matrix(0.982 -0.1889 0.1889 0.982 -4.0554 60.5315)" class="st0" cx="315.5" cy="51.5" rx="1" ry="0.9"/>
	<path class="st0" d="M273.9,44.7c-0.8,0.2-1.3,0.9-1.2,1.8c0.1,0.7,0.8,1.2,1.5,1.2c0.1,0,0.2,0,0.3,0l1.2-0.2l2.9,14.9   c0.7,3.7,4,6.4,7.9,6.4h0c0.5,0,1-0.1,1.6-0.1l1.1-0.2c4.4-0.8,7.3-5,6.5-9.3l-2.9-14.9l3.1-0.6l5.7,29.6l-12.2,2.3   c-0.8,0.2-1.3,0.9-1.2,1.8c0.1,0.7,0.8,1.2,1.5,1.2c0.1,0,0.2,0,0.3,0l27.3-5.3c0.8-0.2,1.3-0.9,1.2-1.8c-0.2-0.8-0.9-1.3-1.8-1.2   l-12.2,2.3l-5.7-29.6l3.1-0.6l2.9,14.9c0.7,3.7,4,6.4,7.9,6.4c0,0,0,0,0,0c0.5,0,1-0.1,1.6-0.1l1.1-0.2c2.1-0.4,4-1.6,5.2-3.4   c1.2-1.8,1.7-3.9,1.3-6l-2.9-14.9l1.2-0.2c0.8-0.2,1.3-0.9,1.2-1.8c-0.2-0.8-0.9-1.3-1.8-1.2l-1.2,0.2L315.8,23l-17.1,3.3l2.5,13.1   l-3.1,0.6L296,28.4c-0.2-0.8-0.9-1.3-1.8-1.2c-0.8,0.2-1.3,0.9-1.2,1.8l2.2,11.6l-3.1,0.6l-2.5-13.1l-17.1,3.3l2.5,13.1L273.9,44.7   z M302.3,28.7l11.2-2.2l2,10.2l-1.2,0.2c-0.8,0.2-1.3,0.9-1.2,1.8c0.1,0.7,0.8,1.2,1.5,1.2c0.1,0,0.2,0,0.3,0l1.2-0.2l2.9,14.9   c0.2,1.3,0,2.6-0.8,3.7c-0.8,1.1-1.9,1.9-3.3,2.1l-1.1,0.2c-0.3,0.1-0.7,0.1-1,0.1c-2.4,0-4.5-1.7-5-4l-2.9-14.9l1-0.2   c0.8-0.2,1.3-0.9,1.2-1.8c-0.2-0.8-0.9-1.3-1.8-1.2l-1,0.2L302.3,28.7z M276.1,33.7l11.2-2.2l2,10.2l-1,0.2   c-0.8,0.2-1.3,0.9-1.2,1.8c0.1,0.7,0.8,1.2,1.5,1.2c0.1,0,0.2,0,0.3,0l1-0.2l2.9,14.9c0.5,2.7-1.3,5.3-4.1,5.8l-1.1,0.2   c-0.3,0.1-0.7,0.1-1,0.1c-2.4,0-4.5-1.7-5-4l-2.9-14.9l1.2-0.2c0.8-0.2,1.3-0.9,1.2-1.8c-0.2-0.8-0.9-1.3-1.8-1.2l-1.2,0.2   L276.1,33.7z"/>
	<ellipse transform="matrix(0.982 -0.1889 0.1889 0.982 -6.0578 54.9552)" class="st0" cx="285.2" cy="59.3" rx="1" ry="0.9"/>
	<ellipse transform="matrix(0.982 -0.1889 0.1889 0.982 -6.495 55.7203)" class="st0" cx="289" cy="61.9" rx="1" ry="0.9"/>
	<ellipse transform="matrix(0.982 -0.1889 0.1889 0.982 -5.1133 59.8027)" class="st0" cx="311.1" cy="56.7" rx="1" ry="0.9"/>
	<ellipse transform="matrix(0.982 -0.1889 0.1889 0.982 -3.9235 59.4521)" class="st0" cx="309.9" cy="50.3" rx="1" ry="0.9"/>
	<ellipse transform="matrix(0.982 -0.1889 0.1889 0.982 -2.7771 59.9684)" class="st0" cx="313.2" cy="44.6" rx="1" ry="0.9"/>
	<ellipse transform="matrix(0.982 -0.1889 0.1889 0.982 -4.8903 55.5274)" class="st0" cx="288.8" cy="53.4" rx="1" ry="0.9"/>
	<ellipse transform="matrix(0.982 -0.1889 0.1889 0.982 -4.4411 54.2943)" class="st0" cx="282.6" cy="50.4" rx="1" ry="0.9"/>
	<path class="st0" d="M118,342.3c0-0.2,0.1-0.8,0.2-1.3c0.2-1.1,0.4-2.1,0.1-3c-0.3-0.9-1-1.7-1.7-2.5c-0.3-0.3-0.7-0.8-0.8-1   c-0.1-0.2-0.3-0.8-0.4-1.2c-0.3-1-0.7-2.1-1.3-2.7c-0.7-0.7-1.7-1-2.7-1.4c-0.4-0.2-1-0.3-1.2-0.5c-0.2-0.1-0.6-0.5-1-0.9   c-0.8-0.7-1.6-1.5-2.5-1.8c-0.6-0.2-1.4-0.2-2.2-0.1l5.3-29c0.1-0.5-0.1-1-0.4-1.3c-0.3-0.3-0.8-0.5-1.3-0.4l-7.3,1.3   c-0.6,0.1-1.1,0.6-1.2,1.2L96.2,315l-8.7-15.3c-0.3-0.5-0.9-0.8-1.6-0.7l-7.4,1.3c-0.5,0.1-0.9,0.4-1.1,0.8c-0.2,0.4-0.2,1,0.1,1.4   l14.6,25.6c-0.8,0.2-1.5,0.4-2,0.8c-0.8,0.6-1.3,1.6-1.8,2.7c-0.2,0.4-0.4,0.8-0.6,1c-0.1,0.2-0.6,0.6-1,0.9   c-0.8,0.6-1.6,1.3-2,2.1c-0.4,0.8-0.4,2-0.3,3c0,0.5,0,1,0,1.3c0,0.2-0.3,0.8-0.5,1.2c-0.4,1-0.9,2-0.8,2.9c0,0.9,0.6,1.9,1.1,2.8   c0.2,0.4,0.5,0.9,0.6,1.1c0.1,0.2,0.1,0.8,0.1,1.3c0.1,1.1,0.2,2.2,0.6,3c0.5,0.8,1.4,1.4,2.3,2c0.4,0.3,0.9,0.6,1,0.7   c0.2,0.2,0.5,0.7,0.7,1.1c0.6,0.9,1.2,1.9,1.9,2.3c0.8,0.5,1.9,0.6,3,0.7c0.5,0,1,0.1,1.3,0.2c0.2,0.1,0.7,0.4,1.1,0.6   c0.9,0.5,1.9,1.1,2.8,1.2l0.2,0c0.9,0,1.8-0.4,2.7-0.8c0.4-0.2,1-0.4,1.2-0.4c0.3-0.1,0.8,0,1.3,0c0.4,0,0.8,0,1.1,0   c0.8,0,1.4-0.1,1.9-0.3c0.9-0.4,1.6-1.2,2.3-2c0.3-0.4,0.7-0.8,0.9-0.9c0.2-0.1,0.7-0.4,1.1-0.6c1-0.5,2-0.9,2.6-1.7   c0.6-0.7,0.8-1.8,1.1-2.8c0.1-0.5,0.2-1,0.3-1.2c0.1-0.2,0.5-0.7,0.7-1.1c0.6-0.9,1.3-1.7,1.5-2.6c0.2-0.9-0.1-2-0.4-3   C118.1,343.1,118,342.6,118,342.3z M85.4,302.1l10.3,18c0.3,0.5,0.9,0.8,1.6,0.7c0.6-0.1,1.1-0.6,1.2-1.2l3.7-20.4l4.2-0.7l-5,27.5   c-0.1,0-0.2-0.1-0.3-0.1c-1-0.3-2.2-0.6-3-0.5c-0.9,0.2-1.8,0.8-2.6,1.4c-0.1,0.1-0.3,0.2-0.4,0.3l-13.8-24.3L85.4,302.1z    M114.8,347.4c-0.4,0.6-0.8,1.1-1.1,1.6c-0.2,0.5-0.4,1.2-0.5,1.9c-0.1,0.5-0.3,1.4-0.5,1.6c-0.2,0.2-1,0.6-1.5,0.8   c-0.6,0.3-1.2,0.6-1.7,0.9c-0.5,0.3-0.9,0.9-1.3,1.4c-0.3,0.4-0.9,1.1-1.2,1.2c0,0-0.2,0.1-0.7,0.1h0c-0.3,0-0.6,0-1,0   c-0.8,0-1.4,0-1.9,0c-0.6,0.1-1.2,0.3-1.8,0.6c-0.5,0.2-1.3,0.5-1.6,0.5c-0.3,0-1.1-0.5-1.5-0.8c-0.6-0.4-1.2-0.7-1.7-0.9   c-0.5-0.2-1.2-0.2-1.9-0.3c-0.5,0-1.4-0.1-1.7-0.3c-0.2-0.2-0.7-1-1-1.4c-0.4-0.6-0.7-1.2-1.1-1.6c-0.4-0.4-1-0.8-1.5-1.2   c-0.4-0.3-1.2-0.8-1.4-1c-0.1-0.3-0.2-1.2-0.2-1.7c-0.1-0.7-0.1-1.4-0.3-1.9c-0.2-0.5-0.5-1.1-0.8-1.7c-0.3-0.5-0.7-1.3-0.7-1.5   c0-0.3,0.4-1.1,0.6-1.6c0.3-0.6,0.5-1.3,0.7-1.8c0.1-0.6,0.1-1.2,0.1-1.9c0-0.5,0-1.4,0.1-1.7c0.1-0.2,0.8-0.7,1.2-1.1   c0.6-0.5,1.2-0.9,1.6-1.5c0.3-0.4,0.5-0.9,0.8-1.4c0.2-0.5,0.7-1.4,0.9-1.6c0.3-0.2,1.3-0.4,1.8-0.5c0.6-0.1,1.2-0.2,1.6-0.4   c0.6-0.2,1.2-0.7,1.8-1.1c0.4-0.3,1.1-0.8,1.3-0.8c0.4,0,1.1,0.2,1.6,0.4c0.7,0.2,1.3,0.4,1.9,0.4c0.5,0,1.2-0.1,1.9-0.2   c0.5-0.1,1.1-0.2,1.4-0.2c0.2,0,0.2,0,0.2,0c0.3,0.1,0.9,0.8,1.3,1.1c0.5,0.5,1,0.9,1.5,1.3c0.5,0.3,1.1,0.5,1.8,0.8   c0.5,0.2,1.4,0.5,1.6,0.7c0.2,0.2,0.5,1.1,0.6,1.6c0.2,0.7,0.4,1.3,0.7,1.8c0.3,0.5,0.7,1,1.2,1.5c0.4,0.4,1,1.1,1.1,1.3   c0.1,0.3-0.1,1.2-0.2,1.7c-0.1,0.7-0.2,1.3-0.2,1.9c0,0.6,0.2,1.2,0.4,1.9c0.1,0.5,0.4,1.4,0.3,1.7   C115.6,346.3,115.1,347,114.8,347.4z"/>
	<path class="st0" d="M101,332.5c-0.6,0-1.2,0.1-1.8,0.2c-2.8,0.5-5.2,2-6.8,4.3c-1.6,2.3-2.2,5-1.8,7.8c0.9,5,5.2,8.7,10.3,8.7   c0.6,0,1.2-0.1,1.8-0.2c2.7-0.5,5.2-2,6.8-4.3c1.6-2.3,2.2-5,1.8-7.8C110.4,336.1,106.1,332.5,101,332.5z M107.1,347.2   c-1.1,1.6-2.9,2.7-4.8,3c-0.4,0.1-0.8,0.1-1.3,0.1c-3.6,0-6.7-2.6-7.3-6.2c-0.3-2,0.1-3.9,1.3-5.6c1.1-1.6,2.9-2.7,4.8-3   c0.4-0.1,0.8-0.1,1.3-0.1c3.6,0,6.7,2.6,7.3,6.2C108.7,343.6,108.2,345.6,107.1,347.2z"/>
	<path class="st0" d="M335.2,130.2c-0.4,0-0.8,0.2-1.1,0.6l-8.9,11.3c-0.4,0.5-0.4,1.1-0.1,1.6c0.3,0.5,0.8,0.8,1.3,0.8   c0,0,0.1,0,0.1,0l4.8-0.4l-11.6,9c-0.7,0.5-0.8,1.5-0.3,2.1c0.3,0.4,0.7,0.6,1.2,0.6c0.3,0,0.6-0.1,0.9-0.3l11.7-9.1   c0.7-0.5,0.8-1.5,0.3-2.1c-0.1-0.1-0.2-0.2-0.4-0.3l0.5,0l7.3,4.7c0.2,0.1,0.4,0.2,0.6,0.2l1.4,6c0.1,0.6,0.6,1,1.2,1.1   c0.1,0,0.2,0,0.3,0c0.5,0,1-0.2,1.2-0.7l7.9-11.6c0.2-0.4,0.3-0.8,0.2-1.2l-1.1-4.2c0,0,0-0.1,0-0.1c8.4-12.2,8.7-25.3,8.7-26   c0-0.5-0.2-1-0.6-1.2c-0.4-0.3-0.9-0.4-1.4-0.2c-9.3,3.3-16.1,12-20.5,19.3L335.2,130.2z M336,133.2l1,0c-1.8,3.4-3.1,6.3-3.7,7.8   l-3.6,0.3L336,133.2z M350.7,142.6l-5.6,8.2l-0.8-3.5c2.3-1.9,4.3-3.9,6.1-6.1L350.7,142.6z M358.1,114.5   c-0.6,5.8-3.5,20.9-16.4,31l-5.5-3.6c0.7-1.7,2.3-5.3,4.6-9.4c0.1-0.2,0.3-0.3,0.3-0.6C344.9,125.5,350.7,118.1,358.1,114.5z"/>
	<path class="st0" d="M341.1,136.6c-0.4,0.7-0.2,1.6,0.5,2.1c0.2,0.2,0.5,0.2,0.8,0.2c0.5,0,1-0.3,1.3-0.7l7.5-12.2   c0.4-0.7,0.2-1.6-0.5-2.1c-0.7-0.4-1.6-0.2-2.1,0.5L341.1,136.6z"/>
	<path class="st0" d="M340.4,149.1c-0.8-0.3-1.6,0.2-1.9,1l-4.5,13.7c-0.3,0.8,0.2,1.6,1,1.9c0.2,0.1,0.3,0.1,0.5,0.1   c0.6,0,1.2-0.4,1.4-1l4.5-13.7C341.6,150.2,341.2,149.4,340.4,149.1z"/>
	<path class="st0" d="M333.1,153.5l-4.7,10.2c-0.3,0.8,0,1.6,0.7,2c0.2,0.1,0.4,0.1,0.6,0.1c0.6,0,1.1-0.3,1.4-0.9l4.7-10.2   c0.3-0.8,0-1.6-0.7-2C334.4,152.4,333.5,152.8,333.1,153.5z"/>
	<path class="st0" d="M332.1,148.4l-6.5,7.1c-0.6,0.6-0.5,1.6,0.1,2.1c0.3,0.3,0.7,0.4,1,0.4c0.4,0,0.8-0.2,1.1-0.5l6.5-7.1   c0.6-0.6,0.5-1.6-0.1-2.1C333.6,147.8,332.6,147.8,332.1,148.4z"/>
	<path class="st0" d="M89.8,289.6c0,0,1.8,1,4.3,1c2.7,0,6.3-1,9.7-5.4c0.8-1,1.7-2,2.7-3.2c0.5,0.1,1.1,0.2,1.7,0.2c0,0,0,0,0,0   c0.3,0,0.6,0,1-0.1c2.2-0.3,4.2-1.3,5.6-3.1c1.4-1.7,2-3.9,1.8-6.1c0-0.2-0.1-0.5-0.1-0.7c0,0,0,0,0,0c1.6-1.4,2.9-2.6,3.8-3.5   l1.3,2.6c0.2,0.5,0.7,0.8,1.3,0.8c0.1,0,0.2,0,0.4,0c1,0,3.8-0.2,5.5-1.8c1-0.9,1.5-2.1,1.5-3.6c0-0.2,0-0.4-0.1-0.6L118,236.5   c-0.3-1.1-1-2-2.1-2.6c-2.7-1.6-6.9-0.7-9.4,0.8c-3.3,2-9.1,8.1-14.7,14c-4.6,4.8-10.2,10.8-11.9,11.4c-3.1,1.2-5.5-0.7-5.6-0.7   c-0.6-0.4-1.4-0.4-1.9,0.1c-0.5,0.5-0.7,1.3-0.3,1.9l17.1,27.8C89.4,289.3,89.6,289.5,89.8,289.6z M112.4,277.2   c-0.9,1.1-2.1,1.8-3.6,2c-0.2,0-0.4,0-0.6,0h0c-2.7,0-5-2-5.3-4.6c-0.2-1.4,0.2-2.8,1.1-3.8c0.9-1.1,2.1-1.8,3.6-2   c0.2,0,0.4,0,0.6,0c2.7,0,5,2,5.3,4.6C113.7,274.8,113.3,276.1,112.4,277.2z M95.9,278.4l-0.6-0.3l4.8-2c0.1,0.4,0.3,0.8,0.4,1.2   l-3.9,3.2l0.1-0.7C96.8,279.3,96.5,278.7,95.9,278.4z M99.3,273.1l-3.8-1l0.1,0c0.5-0.2,0.9-0.7,0.9-1.3l0-0.8l3.6,2   c-0.1,0.3-0.1,0.7-0.2,1l-0.4,0.2C99.5,273.1,99.4,273.1,99.3,273.1z M126.6,268.2c-0.7,0.7-2,0.9-2.9,1l-1.6-3.2   c-0.1-0.1-0.2-0.3-0.3-0.4l-10.4-21.6c1.5-0.2,3.5-0.6,4.9-1.9c0.2-0.2,0.3-0.4,0.5-0.5l10.3,25.4   C127.1,267.5,127,267.9,126.6,268.2z M81.1,262.9c2.2-0.8,6.4-5.2,13-12.2c5.2-5.5,11.1-11.7,14-13.5c2-1.2,4.9-1.6,6.3-0.8   c0.2,0.1,0.4,0.3,0.5,0.5c0,0,0,0,0,0l0.2,0.4c0,0.1,0,0.3,0,0.5c0,0.9-0.3,1.5-0.8,2c-1.4,1.2-4.2,1.3-5.1,1.2   c-0.5-0.1-1.1,0.2-1.4,0.6c-0.3,0.4-0.4,1-0.1,1.5l11,22.8c-0.8,0.7-2.1,1.9-3.7,3.3c-1.7-2.4-4.6-3.9-7.8-3.6   c-2.2,0.3-4.2,1.3-5.6,3.1c-0.1,0.1-0.2,0.3-0.3,0.4l-5.5-3.1c-0.5-0.3-1-0.3-1.5,0c-0.5,0.3-0.7,0.7-0.8,1.3l-0.1,2.4l-3.1,1.4   c-0.6,0.3-0.9,0.9-0.9,1.5c0.1,0.6,0.5,1.2,1.1,1.3l4.3,1.1l-3.9,1.6c-0.5,0.2-0.9,0.8-0.9,1.3c0,0.6,0.3,1.1,0.9,1.4l2.6,1.3   l-0.3,3.3c-0.1,0.6,0.3,1.2,0.8,1.5c0.2,0.1,0.5,0.2,0.7,0.2c0.3,0,0.7-0.1,1-0.3l6.6-5.4c0.4,0.4,0.8,0.7,1.2,1   c-0.8,0.9-1.5,1.8-2.2,2.5c-4.4,5.5-8.7,4.3-9.8,3.8L77,263.5C78.2,263.6,79.6,263.5,81.1,262.9z"/>
	<path class="st0" d="M331.5,176.3l-30.9-11.2c-0.5-0.2-1.1-0.1-1.5,0.3l-3.5,3c-0.1-0.4-0.3-0.9-0.5-1.3c-2.9-7.2-8.7-12-14.5-12   c-0.1,0-0.2,0-0.2,0c2.2-0.9,6.5-0.7,8.5-0.2c2.2,0.5,4,1.8,5.9,3.1c0.9,0.6,1.7,1.2,2.7,1.8c4.9,2.9,11.5,4.7,17.6,4.7   c0.3,0,0.6,0,0.9,0c0.8,0,1.5-0.7,1.5-1.5c0-0.8-0.7-1.5-1.5-1.5c-5.8,0.2-12.3-1.4-16.9-4.2c-0.9-0.5-1.7-1.1-2.5-1.7   c-2-1.4-4.1-2.9-6.9-3.5c-1.6-0.4-8.8-1.3-12,1.3c-0.9,0.8-1.4,1.8-1.5,2.9c-5.7,3.1-7.6,11.8-4.2,20.2c1.3,3.1,3.1,5.8,5.2,7.8   l-5.8,5c-1.8,0.8-3.6,3.4-3.7,6.3c-0.1,1.9,0.5,5.3,5.4,7.4c9,3.9,30.7,13.2,30.9,13.3c0.2,0.1,0.4,0.1,0.6,0.1   c0.4,0,0.8-0.2,1.1-0.4l24.1-24.5c0.6-0.6,0.6-1.5,0-2.1c-0.6-0.6-1.4-0.6-2,0c-1.1-3.3,0.7-6.8,0.8-6.9c0,0,0-0.1,0-0.1l3.6-3.6   c0.4-0.4,0.5-0.9,0.4-1.4C332.4,176.8,332,176.4,331.5,176.3z M278.3,158.5c0.8-0.3,1.6-0.5,2.4-0.5c4.5,0,9.3,4.2,11.7,10.1   c1.5,3.6,1.9,7.4,1.1,10.6c-0.7,3-2.3,5.2-4.6,6.1c-0.8,0.3-1.6,0.5-2.4,0.5c-4.5,0-9.3-4.2-11.7-10.1   C271.8,168,273.4,160.5,278.3,158.5z M279.6,186.1c2.2,1.5,4.5,2.3,6.9,2.3c1.2,0,2.4-0.2,3.6-0.7c3.2-1.3,5.5-4.2,6.4-8.2   c0.6-2.5,0.6-5.2,0.1-7.9l4-3.4l27.8,10.1L304,202.9L275,190L279.6,186.1z M270.6,195.7c0.1-1.6,1-3,1.7-3.5l30.2,13.3   c-0.6,1.3-1.5,3.8-0.9,6.5c-6.6-2.8-20.5-8.9-27.4-11.8C271.8,199.2,270.6,197.6,270.6,195.7z M325.4,191.6L305,212.4   c-1.4-2.9,0.4-6.1,0.5-6.2c0.1-0.2,0.2-0.5,0.2-0.8l18.7-18.9C324.3,188.1,324.5,189.9,325.4,191.6z"/>
	<path class="st0" d="M282.1,169.5c0.2,0,0.4,0,0.6-0.1c0.8-0.3,1.1-1.2,0.8-2l-2.3-5.6c-0.3-0.8-1.2-1.1-2-0.8   c-0.8,0.3-1.1,1.2-0.8,2l2.3,5.6C280.9,169.1,281.5,169.5,282.1,169.5z"/>
	<path class="st0" d="M150.1,51.6l-14.4,15.8c-0.6,0.6-0.5,1.6,0.1,2.1c0.3,0.3,0.6,0.4,1,0.4c0.4,0,0.8-0.2,1.1-0.5l2.7-3   l13.5,12.3c-0.9,1-1.8,2-2.7,3.1c-0.5,0.6-0.5,1.6,0.1,2.1c0.3,0.2,0.6,0.4,1,0.4c0.4,0,0.8-0.2,1.1-0.5c5-5.7,9.9-10.7,14.4-14.9   c0.2-0.1,0.3-0.2,0.5-0.4c0.1-0.1,0.1-0.2,0.1-0.2c10.8-10.1,19-15.7,19.1-15.8c0.7-0.5,0.9-1.4,0.4-2.1c-0.5-0.7-1.4-0.9-2.1-0.4   c-0.1,0.1-8.1,5.6-18.7,15.4l-13.3-12.1c0,0,0-0.1,0.1-0.1l3.9-10.5l-1.4,4.6c-0.2,0.5,0,1.1,0.4,1.5l10,9.1c0.3,0.3,0.6,0.4,1,0.4   c0,0,0,0,0.1,0c0.4,0,0.8-0.2,1-0.5l4.1-4.5c0.6-0.6,0.5-1.6-0.1-2.1l-12.1-11.1c0,0,0,0,0,0l-2.3-2.1c-0.4-0.3-0.9-0.5-1.4-0.3   c-0.5,0.1-0.9,0.5-1.1,0.9l-4.6,12.6c-0.2-0.1-0.4-0.1-0.6-0.1C150.7,51.2,150.4,51.4,150.1,51.6z M160.8,44l9.3,8.5l-2.1,2.3   l-8.2-7.5L160.8,44z M165.3,67.5c-2.9,2.7-5.9,5.8-9,9.1l-13.6-12.4l8.6-9.5L165.3,67.5z"/>
	<path class="st0" d="M132.6,125.3l-3.5,21.2c-0.3,1.7,0.2,3.4,1.2,4.8c1,1.4,2.6,2.3,4.3,2.6l0.5,0.1c0,0,0,0,0,0l0.4,0.4   c1.2,1.1,3.3,1.1,4.4-0.1l0.7-0.7l-2.2,13.5c-0.1,0.8,0.1,1.6,0.5,2.3c0.5,0.7,1.2,1.1,2,1.3l1.5,0.2c1.7,0.3,3.3-0.9,3.6-2.6   l1.7-10.2l0.3,0l-1.7,10.2c-0.3,1.7,0.9,3.3,2.6,3.6l1.5,0.2c0.2,0,0.3,0,0.5,0c1.5,0,2.8-1.1,3.1-2.6l2-12.1l14.6,2.4   c0.4,0.1,0.8,0.1,1.1,0.1c1.3,0,2.6-0.4,3.7-1.1c1.4-1,2.4-2.4,2.7-4.1l3.5-21.2c0.6-3.4-1.9-6.7-5.5-7.3l-35.8-5.9   C136.5,119.5,133.1,121.8,132.6,125.3z M150.9,168.9c0,0.1-0.1,0.1-0.1,0.1l-1.5-0.2c-0.1,0-0.1-0.1-0.1-0.1l2.2-13.2l-6.2-1   l-2.2,13.2c0,0.1-0.1,0.1-0.1,0.1l-1.5-0.2c-0.1,0-0.1-0.1-0.1-0.1l3.8-23.3l-7.5,8l1.1,1l-1.2-1l-0.4-0.4c0,0,0-0.1,0-0.2l8.6-9.2   c0.4-0.4,1.2-0.7,2.5-0.7c1.7,0,3.5,0.5,3.5,0.5l0.2,0c0.7,0.1,1.3,0.4,1.8,0.9l1.1,1.1l8.2-8.7l0.2,0l0.4,0.4c0,0,0,0.1,0,0.2   l-8.8,9.4L150.9,168.9z M149,134.6c0.1-0.8,0.9-1.5,1.7-1.5c0.1,0,0.2,0,0.3,0c0.5,0.1,0.9,0.3,1.1,0.7c0.3,0.4,0.4,0.8,0.3,1.3   c-0.2,0.9-1,1.6-2,1.4C149.5,136.5,148.9,135.6,149,134.6z M178.4,132.8L175,154c-0.1,0.9-0.6,1.6-1.4,2.1   c-0.8,0.5-1.7,0.7-2.7,0.6l-14.6-2.4l1.2-7.5l8.2-8.7c1.2-1.3,1.1-3.2-0.1-4.4l-0.4-0.4c-1.2-1.1-3.3-1-4.4,0.2l-6.2,6.6   c-0.6-0.4-1.3-0.6-2-0.8c1.4-0.6,2.5-1.9,2.8-3.6c0.2-1.3-0.1-2.5-0.8-3.5c-0.7-1-1.8-1.7-3.1-1.9c-2.6-0.4-5,1.4-5.5,3.9   c-0.3,1.8,0.5,3.5,1.8,4.5c-2,0.1-3.4,0.6-4.3,1.7l-8.6,9.2c-0.3,0.3-0.5,0.7-0.7,1.1c-0.6-0.2-1.2-0.7-1.6-1.2   c-0.6-0.7-0.8-1.6-0.6-2.5l3.5-21.2c0.3-1.8,2.1-3,4.1-2.7l35.8,5.9C177.4,129.3,178.7,131,178.4,132.8z"/>
	<path class="st0" d="M144.6,128l24.6,4c0.1,0,0.2,0,0.2,0c0.7,0,1.4-0.5,1.5-1.3c0.1-0.8-0.4-1.6-1.2-1.7l-24.6-4   c-0.8-0.1-1.6,0.4-1.7,1.2C143.2,127.1,143.8,127.9,144.6,128z"/>
	<path class="st0" d="M203.4,142.5c-1-1.4-2.6-2.1-4.3-2.1c-1.2,0-2.3,0.4-3.2,1.1c-2,1.5-2.6,4.1-1.7,6.3l-21.7,16.4   c-0.9-0.7-2.1-1.1-3.3-1.1c-1.2,0-2.3,0.4-3.2,1.1c-2.4,1.8-2.8,5.2-1.1,7.5c0.6,0.7,1.3,1.3,2.1,1.7l-1.3,9.2   c-0.9,0.1-1.7,0.5-2.5,1c-2.4,1.8-2.8,5.2-1.1,7.5c1,1.4,2.6,2.1,4.3,2.1c0.7,0,1.3-0.1,1.9-0.4l16.4,21.7c-1.4,1.9-1.5,4.5,0,6.4   c1,1.4,2.6,2.1,4.3,2.1c1.2,0,2.3-0.4,3.2-1.1c1.9-1.5,2.6-4,1.8-6.2l21.8-16.4c0.9,0.7,2,1.1,3.2,1.1c1.2,0,2.3-0.4,3.2-1.1   c2.4-1.8,2.8-5.2,1.1-7.5c-0.6-0.7-1.3-1.3-2.1-1.7l1.3-9.2c0.9-0.1,1.7-0.5,2.5-1c2.4-1.8,2.8-5.2,1.1-7.5c-1-1.4-2.6-2.1-4.3-2.1   c-0.5,0-1.1,0.1-1.6,0.2l-16.5-21.9C204.8,146.8,204.8,144.4,203.4,142.5z M217.2,190.1l-4.3-5.7l5.7-4.3c0.3,0.2,0.6,0.4,1,0.5   l-1.3,9.2C217.9,189.8,217.5,189.9,217.2,190.1z M192.3,213.4c-0.3-0.2-0.7-0.4-1-0.6l1.3-9.2c0.9-0.1,1.7-0.5,2.5-1   c1.1-0.9,1.9-2.1,2.1-3.5c0.1-0.9,0-1.7-0.3-2.6l13.7-10.3l4.3,5.7c-1.1,1.5-1.4,3.4-0.7,5.1L192.3,213.4z M187.2,212.7L170.8,191   c1.1-1.5,1.4-3.4,0.7-5.1l6-4.5l10.1,13.4c-1.6,1.9-1.8,4.7-0.2,6.7c0.6,0.7,1.3,1.3,2.1,1.7l-1.3,9.2   C187.9,212.5,187.6,212.6,187.2,212.7z M171.4,173.3l4.3,5.7l-6,4.5c-0.3-0.2-0.7-0.4-1-0.6l1.3-9.2   C170.5,173.6,170.9,173.5,171.4,173.3z M196,150.1c0.3,0.2,0.6,0.4,1,0.6l-1.3,9.2c-0.9,0.1-1.7,0.5-2.5,1c-1.9,1.5-2.6,4-1.8,6.2   l-13.4,10.1l-4.4-5.9c0.4-0.6,0.7-1.4,0.8-2.2c0.1-0.9,0-1.7-0.3-2.6L196,150.1z M189.9,199.7c-0.8-1-0.6-2.5,0.5-3.3   c0.4-0.3,0.9-0.5,1.4-0.5c0.8,0,1.4,0.3,1.9,0.9c0.4,0.5,0.5,1.1,0.5,1.8c-0.1,0.6-0.4,1.2-0.9,1.6   C192.2,201,190.6,200.7,189.9,199.7z M195,194c-0.9-0.7-2.1-1.1-3.3-1.1c-0.5,0-1.1,0.1-1.6,0.2l-10.2-13.6l13.3-10.1   c0.9,0.7,2,1.1,3.2,1.1c0.7,0,1.3-0.1,1.9-0.4l10.2,13.6L195,194z M198.9,165.5c-0.1,0.6-0.4,1.2-0.9,1.6c-1,0.8-2.6,0.6-3.3-0.5   c-0.8-1-0.6-2.5,0.5-3.3c0.4-0.3,0.9-0.5,1.4-0.5c0.8,0,1.4,0.3,1.9,0.9C198.8,164.3,198.9,164.9,198.9,165.5z M216.8,177.6   L211,182l-10.2-13.6c0.5-0.7,0.9-1.5,1-2.5c0.2-1.4-0.2-2.8-1-4c-0.6-0.7-1.3-1.3-2.1-1.7l1.3-9.2c0.5-0.1,1-0.2,1.4-0.4l16.3,21.5   C216.3,173.7,216,175.8,216.8,177.6z M197.7,143.8c0.4-0.3,0.9-0.5,1.4-0.5c0.8,0,1.4,0.3,1.9,0.9c0.8,1,0.6,2.5-0.5,3.3   c-1,0.8-2.6,0.6-3.3-0.5C196.5,146.1,196.7,144.6,197.7,143.8z M167.7,166.5c0.4-0.3,0.9-0.5,1.4-0.5c0.8,0,1.4,0.3,1.9,0.9   c0.4,0.5,0.5,1.1,0.5,1.8c-0.1,0.6-0.4,1.2-0.9,1.6c-1,0.8-2.6,0.5-3.3-0.5C166.5,168.8,166.7,167.3,167.7,166.5z M164.6,189.2   c-0.8-1-0.6-2.5,0.5-3.3c0.4-0.3,0.9-0.5,1.4-0.5c0.8,0,1.4,0.3,1.9,0.9c0.8,1,0.6,2.5-0.5,3.3   C166.9,190.5,165.4,190.3,164.6,189.2z M191.5,218c-0.1,0.6-0.4,1.2-0.9,1.6c-1,0.8-2.6,0.5-3.3-0.5c-0.8-1-0.6-2.5,0.5-3.3   c0.4-0.3,0.9-0.5,1.4-0.5c0.8,0,1.4,0.3,1.9,0.9C191.4,216.8,191.5,217.4,191.5,218z M220.5,197c-1,0.8-2.6,0.6-3.3-0.5   c-0.8-1-0.6-2.5,0.5-3.3c0.4-0.3,0.9-0.5,1.4-0.5c0.8,0,1.4,0.3,1.9,0.9C221.8,194.7,221.6,196.2,220.5,197z M223.6,174.2   c0.8,1,0.6,2.5-0.5,3.3c-1,0.8-2.6,0.6-3.3-0.5c-0.8-1-0.6-2.5,0.5-3.3c0.4-0.3,0.9-0.5,1.4-0.5   C222.5,173.3,223.2,173.6,223.6,174.2z"/>
	<path class="st0" d="M68.6,312.1c-0.8-3.3-3.8-5.7-7.3-5.7c-0.6,0-1.2,0.1-1.8,0.2L29.3,314c-4.7,0.8-10.5,2.3-11.3,4.7   c-0.2,0.6-0.1,1.2,0.2,1.7c0.8,1.6,3.9,2.8,5.8,3.4l10.8,44c0.8,3.3,3.8,5.7,7.3,5.7c0.6,0,1.2-0.1,1.8-0.2l30.3-7.4   c4-1,6.5-5,5.5-9L68.6,312.1z M25.7,321.3c-1.7-0.5-3.5-1.3-4.4-1.9c1.3-0.8,4.9-1.8,8.6-2.4l30.4-7.5c0.3-0.1,0.7-0.1,1.1-0.1   c2,0,3.9,1.4,4.3,3.4l2.2,8.9c-7,1.5-10,4.1-13.7,7.2c-2.2,1.9-4.8,4.1-8.8,6.5c-8.4,5.1-13.2,4-14.7,3.5l-4.3-17.4L25.7,321.3z    M73.5,363.1l-30.3,7.4c-0.3,0.1-0.7,0.1-1.1,0.1c-2,0-3.9-1.4-4.3-3.4l-6.1-25c0.7,0.1,1.4,0.2,2.3,0.2c3.1,0,7.4-0.9,13.1-4.4   c4.2-2.6,6.8-4.8,9.1-6.8c3.6-3.1,6.1-5.3,12.5-6.6l8.1,33C77.3,360,75.9,362.5,73.5,363.1z"/>
	<path class="st0" d="M59.8,347.9c0.9-1.5,1.2-3.2,0.8-4.9c-0.7-2.9-3.3-5-6.3-5c-0.5,0-1,0.1-1.6,0.2c-3.5,0.9-5.6,4.4-4.8,7.9   c0.7,2.9,3.3,5,6.3,5c0.5,0,1-0.1,1.6-0.2C57.4,350.4,58.9,349.4,59.8,347.9z M57.2,346.3c-0.5,0.8-1.3,1.4-2.2,1.6   c-0.3,0.1-0.6,0.1-0.8,0.1c-1.6,0-3-1.1-3.4-2.7c-0.5-1.9,0.7-3.8,2.6-4.3c0.3-0.1,0.6-0.1,0.8-0.1c1.6,0,3,1.1,3.4,2.7   C57.8,344.6,57.7,345.5,57.2,346.3z"/>
	<path class="st0" d="M61.7,340.6c0.3,0,0.7,0,1-0.1c1.1-0.3,2-1,2.6-1.9c0.6-1,0.8-2.1,0.5-3.2c-0.5-1.9-2.2-3.2-4.1-3.2   c-0.3,0-0.7,0-1,0.1c-2.3,0.6-3.7,2.9-3.1,5.2C58,339.2,59.7,340.6,61.7,340.6z M60.6,335.6c0.2-0.3,0.5-0.5,0.8-0.6   c0.1,0,0.2,0,0.3,0c0.6,0,1.1,0.4,1.2,1c0.1,0.3,0,0.7-0.1,1c-0.2,0.3-0.5,0.5-0.8,0.6c-0.7,0.2-1.4-0.3-1.5-0.9   C60.4,336.3,60.5,335.9,60.6,335.6z"/>
	<path class="st0" d="M62.9,351c-0.3,0-0.7,0-1,0.1c-1.1,0.3-2,0.9-2.6,1.9c-0.6,0.9-0.7,2.1-0.5,3.1c0.5,1.9,2.1,3.2,4,3.2   c0.3,0,0.7,0,1-0.1c2.2-0.5,3.6-2.8,3-5C66.5,352.3,64.9,351,62.9,351z M63.2,356.2c-0.6,0.1-1.2-0.2-1.4-0.8   c-0.1-0.3,0-0.6,0.1-0.9c0.2-0.3,0.4-0.4,0.7-0.5c0.1,0,0.2,0,0.3,0c0.5,0,1,0.4,1.1,0.9C64.2,355.5,63.8,356.1,63.2,356.2z"/>
	<path class="st0" d="M31.3,325c0.1,0,0.2,0,0.4,0l7.9-1.9c0.8-0.2,1.3-1,1.1-1.8c-0.2-0.8-1-1.3-1.8-1.1l-7.9,1.9   c-0.8,0.2-1.3,1-1.1,1.8C30,324.6,30.6,325,31.3,325z"/>
	<path class="st0" d="M32.8,336c0.2,0.7,0.8,1.1,1.5,1.1c0.1,0,0.2,0,0.4,0l7.9-1.9c0.8-0.2,1.3-1,1.1-1.8c-0.2-0.8-1-1.3-1.8-1.1   l-7.9,1.9C33.1,334.4,32.6,335.2,32.8,336z"/>
	<path class="st0" d="M33.1,331.1l3.9-1c0.8-0.2,1.3-1,1.1-1.8c-0.2-0.8-1-1.3-1.8-1.1l-3.9,1c-0.8,0.2-1.3,1-1.1,1.8   c0.2,0.7,0.8,1.1,1.5,1.1C32.9,331.1,33,331.1,33.1,331.1z"/>
	<path class="st0" d="M286.5,308.6c6.2,0,11.2-4.9,11.2-10.9c0-2-0.6-3.9-1.6-5.5c0-0.1,0-0.2-0.1-0.3l-9-22.2l-0.2-0.3   c-0.1-0.2-1.5-2-3.8-2.3c-1.7-0.2-3.4,0.5-5,2c-0.6,0.6-0.6,1.5-0.1,2.1c0.6,0.6,1.5,0.6,2.1,0.1c1-0.9,1.8-1.3,2.6-1.3   c0.8,0.1,1.4,0.7,1.6,0.9l6.8,16.8c-1.4-0.6-3-1-4.6-1c-3.5,0-6.7,1.6-8.7,4.1c-3.7-2.3-7.4-1.2-9.5,0.2c-2-2.6-5.3-4.4-8.9-4.4   c-1.7,0-3.4,0.4-4.9,1.1l6.8-16.9c0.2-0.2,0.8-0.8,1.6-0.9c0.8-0.1,1.7,0.3,2.7,1.3c0.6,0.6,1.6,0.5,2.1-0.1   c0.6-0.6,0.5-1.6-0.1-2.1c-1.6-1.5-3.3-2.2-5-2c-2.3,0.3-3.7,2.1-3.8,2.3l-9.1,22.5c-0.1,0.2-0.1,0.4-0.1,0.6   c-0.9,1.6-1.4,3.3-1.4,5.2c0,6,5,10.9,11.2,10.9c6.2,0,11.2-4.9,11.2-10.9c0-1.4-0.3-2.7-0.8-4c1-0.7,3.5-2,6.4-0.3   c-0.6,1.3-0.9,2.7-0.9,4.2C275.3,303.7,280.3,308.6,286.5,308.6z M259.3,305.6c-4.5,0-8.2-3.6-8.2-7.9c0-4.4,3.7-7.9,8.2-7.9   c4.5,0,8.2,3.6,8.2,7.9C267.5,302.1,263.8,305.6,259.3,305.6z M286.5,289.7c4.5,0,8.2,3.6,8.2,7.9c0,4.4-3.7,7.9-8.2,7.9   c-4.5,0-8.2-3.6-8.2-7.9C278.3,293.3,282,289.7,286.5,289.7z"/>
	<path class="st0" d="M287.8,327.2l-8.3-3.4l0.8-2c0.3-0.8-0.1-1.6-0.8-2c-0.8-0.3-1.6,0.1-2,0.8l-0.8,2l-5.1-2.1l0.8-2   c0.3-0.8-0.1-1.6-0.8-2c-0.8-0.3-1.6,0.1-2,0.8l-0.8,2l-5.1-2.1l0.8-2c0.3-0.8-0.1-1.6-0.8-2c-0.8-0.3-1.6,0.1-2,0.8l-0.8,2   l-5.1-2.1l0.8-2c0.3-0.8-0.1-1.6-0.8-2c-0.8-0.3-1.6,0.1-2,0.8l-0.8,2l-8.3-3.4c-0.4-0.2-0.8-0.1-1.1,0c-0.4,0.2-0.7,0.4-0.8,0.8   L226.6,350c-0.2,0.4-0.1,0.8,0,1.1c0.2,0.4,0.4,0.7,0.8,0.8l43,17.7c0.2,0.1,0.4,0.1,0.6,0.1c0.6,0,1.1-0.4,1.4-0.9l16.3-39.6   C288.9,328.4,288.6,327.5,287.8,327.2z M270.2,366.3l-40.2-16.5l15.1-36.9l6.9,2.8l-0.8,2c-0.3,0.8,0.1,1.6,0.8,2   c0.2,0.1,0.4,0.1,0.6,0.1c0.6,0,1.1-0.4,1.4-0.9l0.8-2l5.1,2.1l-0.8,2c-0.3,0.8,0.1,1.6,0.8,2c0.2,0.1,0.4,0.1,0.6,0.1   c0.6,0,1.1-0.4,1.4-0.9l0.8-2l5.1,2.1l-0.8,2c-0.3,0.8,0.1,1.6,0.8,2c0.2,0.1,0.4,0.1,0.6,0.1c0.6,0,1.1-0.4,1.4-0.9l0.8-2l5.1,2.1   l-0.8,2c-0.3,0.8,0.1,1.6,0.8,2c0.2,0.1,0.4,0.1,0.6,0.1c0.6,0,1.1-0.4,1.4-0.9l0.8-2l6.9,2.8L270.2,366.3z"/>
	<path class="st0" d="M274.4,334.4l-25.1-10.3c-0.8-0.3-1.6,0.1-2,0.8c-0.3,0.8,0.1,1.6,0.8,2l25.1,10.3c0.2,0.1,0.4,0.1,0.6,0.1   c0.6,0,1.1-0.4,1.4-0.9C275.5,335.6,275.2,334.7,274.4,334.4z"/>
	<path class="st0" d="M271.6,341.1l-25.1-10.3c-0.8-0.3-1.6,0.1-2,0.8c-0.3,0.8,0.1,1.6,0.8,2l25.1,10.3c0.2,0.1,0.4,0.1,0.6,0.1   c0.6,0,1.1-0.4,1.4-0.9C272.8,342.3,272.4,341.4,271.6,341.1z"/>
	<path class="st0" d="M268.9,347.8l-25.1-10.3c-0.8-0.3-1.6,0.1-2,0.8c-0.3,0.8,0.1,1.6,0.8,2l25.1,10.3c0.2,0.1,0.4,0.1,0.6,0.1   c0.6,0,1.1-0.4,1.4-0.9C270,349,269.7,348.1,268.9,347.8z"/>
	<path class="st0" d="M266.1,354.5L241,344.2c-0.8-0.3-1.6,0.1-2,0.8c-0.3,0.8,0.1,1.6,0.8,2l25.1,10.3c0.2,0.1,0.4,0.1,0.6,0.1   c0.6,0,1.1-0.4,1.4-0.9C267.3,355.7,266.9,354.8,266.1,354.5z"/>
	<path class="st0" d="M157.9,333.1l-16.8-27.9c-0.4-0.6-1.2-0.9-1.9-0.6L114.5,315c-0.8,0.3-1.1,1.2-0.8,2c0.3,0.8,1.2,1.1,2,0.8   l23.5-9.9l15.5,25.8l-19.2,17.2c-0.6,0.6-0.7,1.5-0.1,2.1c0.3,0.3,0.7,0.5,1.1,0.5c0.4,0,0.7-0.1,1-0.4l20.2-18   C158.2,334.5,158.3,333.7,157.9,333.1z"/>
	<path class="st0" d="M198.9,353.8L171,370.6l-10.5-17.5c-0.4-0.7-1.3-0.9-2.1-0.5c-0.7,0.4-0.9,1.3-0.5,2.1l4.9,8.1l-11.7,7   l-3.5-5.8c-0.4-0.7-1.3-0.9-2.1-0.5c-0.7,0.4-0.9,1.3-0.5,2.1l4.2,7l0,0c0,0,0,0,0,0l4,6.6c0.3,0.5,0.8,0.7,1.3,0.7   c0.3,0,0.5-0.1,0.8-0.2c0.7-0.4,0.9-1.3,0.5-2.1l-3.2-5.3l11.7-7l4.9,8.1c0.2,0.3,0.5,0.6,0.9,0.7c0.1,0,0.2,0,0.4,0   c0.3,0,0.5-0.1,0.8-0.2l29.2-17.6c0.7-0.4,0.9-1.3,0.5-2.1C200.5,353.6,199.6,353.4,198.9,353.8z"/>
	<path class="st0" d="M192.3,330.7c1.5,0,2.9-0.4,4.2-1.2c1.8-1.1,3.2-2.9,3.7-5c0.5-2.1,0.2-4.3-0.9-6.1c-1.5-2.4-4.1-3.9-6.9-3.9   c-1.5,0-2.9,0.4-4.2,1.2c-1.8,1.1-3.2,2.9-3.7,5c-0.5,2.1-0.2,4.3,0.9,6.1C186.8,329.2,189.4,330.7,192.3,330.7z M187.3,321.4   c0.3-1.3,1.1-2.4,2.3-3.1c0.8-0.5,1.7-0.7,2.6-0.7c1.8,0,3.4,0.9,4.4,2.5c0.7,1.2,0.9,2.5,0.6,3.8c-0.3,1.3-1.1,2.4-2.3,3.1   c-0.8,0.5-1.7,0.7-2.6,0.7c-1.8,0-3.4-0.9-4.4-2.5C187.2,324.1,187,322.7,187.3,321.4z"/>
	<path class="st0" d="M148.2,360.1l12.9-11.6l6.6,11c0.2,0.5,0.4,0.9,0.6,1.3c0.3,0.5,0.6,0.9,1.1,1.4c0.5,0.7,1.3,1.2,2.1,1.5   c1.1,0.5,2.3,0.8,3.4,0.8h0c2.8,0,5.4-1.5,6.9-3.9l10.5-17.3c1.7-2.8,1.4-6.5-0.7-8.9c-0.5-1.6-1.8-2.8-3.5-3.1l-14.3-2.7l-8.4-9.8   c-0.9-1-2.1-1.6-3.5-1.6c-1.1,0-2.2,0.4-3.1,1.1c-1.8,1.5-2.2,4-1.1,5.9c0.1,0.2,0.3,0.4,0.4,0.6l9.4,11c0.7,0.8,1.6,1.3,2.6,1.5   l6.7,1.3l-5.5,9l-5.3-8.8c-0.7-1.2-1.9-2-3.3-2.2c-1.4-0.2-2.8,0.3-3.8,1.2L142,353.3c-1.7,1.5-2.1,3.9-0.9,5.8   c0.2,0.3,0.3,0.5,0.6,0.7c0.9,0.9,2.1,1.5,3.4,1.5C146.2,361.3,147.3,360.9,148.2,360.1z M143.8,357.8c-0.1-0.1-0.1-0.2-0.2-0.2   c-0.4-0.6-0.2-1.5,0.4-2l17.1-15.4c0.4-0.3,0.9-0.5,1.4-0.4c0.5,0.1,0.9,0.3,1.1,0.7l6.6,10.9c0.3,0.5,0.8,0.7,1.3,0.7c0,0,0,0,0,0   c0.5,0,1-0.3,1.3-0.7l7.9-13c0.3-0.4,0.3-0.9,0.1-1.4c-0.2-0.4-0.6-0.8-1.1-0.9l-8.8-1.7c-0.4-0.1-0.7-0.2-0.9-0.5l-9.4-11   c-0.1-0.1-0.1-0.1-0.1-0.2c-0.4-0.7-0.2-1.5,0.4-2.1c0.7-0.6,1.8-0.5,2.4,0.1l8.7,10.2c0.2,0.3,0.5,0.4,0.9,0.5l14.8,2.8   c0.6,0.1,1.1,0.6,1.2,1.2c0.1,0.3,0.2,0.5,0.4,0.7c1.4,1.5,1.7,3.8,0.6,5.6l-10.5,17.3c-0.9,1.5-2.6,2.4-4.3,2.4   c-0.8,0-1.5-0.2-2.2-0.5c-0.1,0-0.2-0.1-0.2-0.1c-0.3-0.1-0.6-0.3-0.8-0.5c0-0.1-0.1-0.1-0.2-0.2c-0.3-0.3-0.5-0.6-0.7-0.9   c-0.1-0.2-0.3-0.5-0.4-0.9c0-0.1-0.1-0.2-0.1-0.3l-7.6-12.7c-0.2-0.4-0.6-0.6-1.1-0.7c-0.1,0-0.1,0-0.2,0c-0.4,0-0.7,0.1-1,0.4   l-14.2,12.8C145.5,358.5,144.4,358.4,143.8,357.8z"/>
	<path class="st0" d="M161.4,298.4L150.1,317c-0.3,0.5-0.3,1.1,0,1.6l7.7,12.8c0.3,0.5,0.8,0.7,1.3,0.7c0.3,0,0.5-0.1,0.8-0.2   c0.7-0.4,0.9-1.3,0.5-2.1l-7.2-12L164,300c0.4-0.7,0.2-1.6-0.5-2.1C162.7,297.5,161.8,297.7,161.4,298.4z"/>
	<path class="st0" d="M298.7,352.1l-4,7.1l22.3,12.6l4-7.1L298.7,352.1z M315.9,367.8l-17.1-9.7l1.1-1.9l17.1,9.7L315.9,367.8z"/>
	<path class="st0" d="M300.7,348.7l22.3,12.6l4-7.1l-22.3-12.6L300.7,348.7z M305.8,345.6l17.1,9.7l-1.1,1.9l-17.1-9.7L305.8,345.6z   "/>
	<path class="st0" d="M333,343.6L310.7,331l-4,7.1l22.3,12.6L333,343.6z M327.8,346.6l-17.1-9.7l1.1-1.9l17.1,9.7L327.8,346.6z"/>
	<path class="st0" d="M338.3,343.9c0.4-0.7,0.2-1.6-0.6-2c-0.7-0.4-1.6-0.2-2,0.6L317.4,375c-0.4,0.7-0.2,1.6,0.6,2   c0.2,0.1,0.5,0.2,0.7,0.2c0.5,0,1-0.3,1.3-0.8L338.3,343.9z"/>
	<path class="st0" d="M344.7,340.9c-0.7-0.4-1.6-0.2-2,0.6L320,381.5c-0.4,0.7-0.2,1.6,0.6,2c0.2,0.1,0.5,0.2,0.7,0.2   c0.5,0,1-0.3,1.3-0.8l22.6-40.1C345.6,342.2,345.4,341.3,344.7,340.9z"/>
	<path class="st0" d="M313.1,322.6c-0.5-0.5-1.3-0.5-1.8-0.2L289,336.5c-0.4,0.3-0.7,0.7-0.7,1.2l-0.5,26.4c0,0.7,0.4,1.3,1.1,1.5   c0.1,0,0.3,0.1,0.4,0.1c0.5,0,1-0.3,1.3-0.8l22.9-40.5C313.8,323.9,313.6,323.1,313.1,322.6z M290.9,358.3l0.4-19.6l16.6-10.5   L290.9,358.3z"/>
	<path class="st0" d="M182.2,65.3c-0.3,0.1-0.5,0.2-0.7,0.2c-0.3,0.1-0.7,0.1-1.1,0.1c-0.5,0-1,0-1.6,0.1c-0.6,0.1-1.2,0.3-1.7,0.5   c-0.2,0.1-0.5,0.2-0.7,0.3c-2.9,0.8-4.7,3.5-6.1,5.7c-0.1,0.1-0.2,0.3-0.2,0.4c-0.1,0.1-0.1,0.3-0.2,0.3c-0.1,0-0.1,0.1-0.2,0.1   c-0.2,0.1-0.4,0.3-0.7,0.4c-0.7,0.6-2,2.2-1.8,3.8c0.3,1.8,1.7,2.4,2.5,2.7c0.2,0.1,0.4,0.1,0.6,0.2c0.6,0.4,1.4,1.1,2,1.7l0.4,0.4   c0.2,0.2,0.4,0.3,0.6,0.5c0.3,0.2,0.5,0.4,0.6,0.6c0.3,0.4,0.8,0.6,1.2,0.5c0.5,0,0.9-0.3,1.2-0.7c1.1-1.7,1.3-3.7,1.5-5.5   c0.1-0.7,0.1-1.3,0.2-1.9c-0.8,6.8,2.4,13.3,8.3,16.2c3.8,1.8,8.1,1.9,12.2,0.3c2.1-0.8,4-2.1,5.6-3.6c-0.4,0.4-0.8,0.8-1.2,1.2   c-1.3,1.2-2.7,2.6-3.4,4.6c-0.1,0.4-0.1,0.9,0.2,1.3c0.3,0.4,0.7,0.6,1.2,0.6c0.3,0,0.5,0.1,0.9,0.1c0.3,0.1,0.5,0.1,0.8,0.1   l0.6,0.1c0.9,0.1,1.9,0.2,2.6,0.5c0.2,0.1,0.4,0.2,0.5,0.3c0.5,0.3,1.3,0.8,2.2,0.8c0.5,0,1-0.1,1.5-0.4c1.4-0.8,1.9-2.9,1.9-3.7   c0-0.3,0-0.5-0.1-0.8c0-0.1,0-0.1,0-0.2c0-0.1,0.1-0.2,0.1-0.4c0.1-0.1,0.1-0.3,0.2-0.4c0.9-2.4,1.9-5.5,0.8-8.3   c-0.1-0.2-0.2-0.5-0.2-0.7c-0.2-0.5-0.3-1.1-0.6-1.6c-0.3-0.5-0.6-0.9-0.9-1.3c-0.2-0.3-0.5-0.6-0.6-1c-0.1-0.2-0.2-0.4-0.2-0.7   c2.6-8.7-0.4-17.4-7.3-20.8C196.2,54.9,187.5,57.8,182.2,65.3z M179.6,68.7c-0.6,0.4-1,0.7-1.2,0.9c-1.5,1.3-2.5,3.1-3,5.5   c-0.2,0.8-0.3,1.7-0.4,2.5c-0.1,0.8-0.2,1.6-0.3,2.3l-0.1-0.1c-0.8-0.8-1.7-1.6-2.7-2.2c-0.3-0.2-0.7-0.3-1-0.4   c-0.2-0.1-0.5-0.2-0.6-0.3c0.1-0.3,0.5-0.9,0.7-1.1c0.1-0.1,0.2-0.1,0.2-0.2c0.2-0.1,0.6-0.4,0.9-0.8c0.3-0.3,0.4-0.7,0.6-0.9   c0-0.1,0.1-0.2,0.1-0.3c1-1.6,2.4-3.8,4.3-4.4c0.3-0.1,0.6-0.2,0.9-0.3c0.4-0.2,0.8-0.3,1.1-0.3c0.2,0,0.3,0,0.5-0.1   C179.7,68.6,179.6,68.7,179.6,68.7z M197.6,89.7c-3.3,1.3-6.8,1.3-9.8-0.2c-6.3-3-8.6-11.2-5.2-18.3l1.8,0.9   c0.2,0.1,0.5,0.2,0.8,0.1c0.8-0.1,1.5-0.2,2.1-0.5c-0.1,0.2-0.1,0.5-0.1,0.7c0,0.6,0.3,1.1,0.8,1.4l0.2,0.1   c0.6,0.3,1.3,0.2,1.7-0.3c0.4-0.4,2.1-1.7,3.8-3c-0.4,0.8-0.6,1.5-0.7,2.1c-0.3,1.8,0.7,3,1.4,3.7c0.5,0.5,1.3,0.6,1.9,0.2   c0,0,0.1,0,0.1-0.1c0.4,0.3,0.7,0.3,1,0.3c0.1,0.1,0.1,0.2,0.2,0.3c0.9,1.2,4.7,3.3,7.7,4.9c0,0,0,0.1-0.1,0.1   C203.8,85.7,201,88.4,197.6,89.7z M209.6,83.4c0.2,0.3,0.3,0.7,0.4,1.1c0.1,0.3,0.2,0.6,0.3,0.9c0.7,1.8-0.1,4.4-0.8,6.1   c0,0.1-0.1,0.2-0.1,0.3c-0.1,0.3-0.3,0.6-0.4,1c-0.1,0.5,0,0.9,0,1.2c0,0.1,0,0.2,0,0.3c0,0.3-0.2,1-0.4,1.2   c-0.1,0-0.4-0.2-0.6-0.3c-0.3-0.2-0.6-0.3-0.9-0.5c-1.1-0.4-2.3-0.6-3.4-0.7l-0.2,0c0.5-0.6,1-1.1,1.6-1.7c0.6-0.6,1.2-1.2,1.8-1.8   c1.5-1.8,2.3-3.7,2.4-5.8c0-0.3,0-0.7,0-1.5c0-0.1,0-0.2,0-0.2C209.4,83.1,209.5,83.3,209.6,83.4z M201.8,60.9   c5.7,2.8,8,10.1,5.7,17.5c-0.1,0.2-0.1,0.5-0.1,0.7c0.1,0.3,0.1,0.6,0.2,0.9c0,0-0.1,0-0.1,0c-0.1-0.2-0.3-0.3-0.5-0.4   c-3.9-2.1-6.5-3.7-6.9-4.2c0,0,0-0.1-0.1-0.1c-0.1-0.3-0.5-1.1-1.5-1.4c-0.1,0-0.2,0-0.3-0.1c-0.1-0.2-0.3-0.4-0.5-0.6   c-0.7-0.4-1.4-0.2-1.7-0.1c0,0,0,0-0.1,0c0,0,0,0,0,0c0.1-0.6,1.1-2.5,1.7-3.7c1.1-2.2,1.5-2.8,1.2-3.7c-0.1-0.4-0.4-0.7-0.8-0.9   c-0.9-0.4-1.2-0.4-5.6,2.9c-0.1,0.1-0.3,0.2-0.4,0.3c0-0.1,0.1-0.1,0.1-0.2l0.2-0.4c0,0,0-0.1,0-0.1c0.4-0.7,0-1.6-0.7-2   c-0.7-0.4-1.6,0-2,0.7l0,0c-0.2,0.4-1,1.1-1.4,1.4l-0.3,0.3c-0.5,0.4-1.2,1-1.7,1.2c-0.3,0.1-0.6,0.2-1,0.2l-1.6-0.8   c-0.2-0.1-0.4-0.1-0.6-0.2c0-0.1-0.1-0.1-0.1-0.1c0.3-0.1,0.6-0.3,0.9-0.4c0.2-0.1,0.4-0.3,0.5-0.5   C188.9,60.8,196.1,58.2,201.8,60.9z"/>
	<path class="st0" d="M179.7,88.6c-0.2-0.6-0.7-0.9-1.3-1c-11.9-0.5-23.2,6.3-28.4,17.1c-0.4,0.8-0.7,1.6-1.1,2.5   c-0.3,0.7,0,1.5,0.7,1.9l46.5,22.6c0.2,0.1,0.4,0.2,0.7,0.2c0.5,0,1-0.3,1.3-0.7c0.5-0.9,1-1.7,1.3-2.4c5.3-10.9,3.7-23.8-4.1-32.9   c-0.4-0.5-1-0.6-1.6-0.5c-0.6,0.2-1,0.7-1,1.3l-0.7,6.7l-6.3-7.6c-0.3-0.3-0.7-0.5-1.1-0.5l-9.9-0.3l4.8-4.7   C179.7,89.8,179.9,89.1,179.7,88.6z M183.6,98.2l8.2,9.8c0.4,0.5,1,0.6,1.6,0.5c0.6-0.2,1-0.7,1.1-1.3l0.7-6.4   c5.1,7.9,5.7,18,1.5,26.7c-0.2,0.3-0.3,0.6-0.5,1l-44-21.4c0.2-0.4,0.3-0.7,0.5-1c4.2-8.6,12.6-14.4,21.9-15.3l-4.6,4.5   c-0.4,0.4-0.6,1.1-0.3,1.6c0.2,0.6,0.7,0.9,1.4,1L183.6,98.2z"/>
	<path class="st0" d="M77.1,85c0.4,1.9,2.1,3.2,4,3.2c0.3,0,0.5,0,0.8-0.1c0,0,0,0,0,0c2.2-0.4,3.7-2.5,3.3-4.7   c-0.4-2.2-2.6-3.6-4.8-3.1C78.2,80.8,76.7,82.9,77.1,85z M81,83.3c0.1,0,0.2,0,0.2,0c0.5,0,1,0.3,1,0.8c0.1,0.5-0.3,1.1-0.9,1.2   c-0.6,0.1-1.2-0.2-1.3-0.8C79.9,83.9,80.4,83.4,81,83.3z"/>
	<path class="st0" d="M41.7,111.2c0.5,0,1-0.3,1.3-0.7l4.2-7.2c0.2-0.4,0.3-0.8,0.1-1.2c-0.1-0.4-0.4-0.7-0.8-0.9l-0.2-0.1   c1.3-0.6,2.6-1.3,3.7-2.1c0,0,0.1,0,0.1,0l39.8-7.6c0.4-0.1,0.7-0.3,1-0.6c0.2-0.3,0.3-0.7,0.2-1.1l-2.5-13.1   c-0.2-0.8-0.9-1.3-1.8-1.2L62.5,80c-0.2-0.5-0.4-0.9-0.7-1.3l21.1-4c2.5-0.5,4.2-2.9,3.8-5.3l-5.5-28.8c-0.5-2.4-2.9-4-5.4-3.6   L28,46.2c-1.2,0.2-2.3,0.9-3,1.9c-0.7,1-1,2.2-0.8,3.4l5.2,27.3c0.1,0.7,0.8,1.2,1.5,1.2c0,0,0.1,0,0.1,0l-0.7,3.9c0,0,0,0,0,0.1   l-0.5,2.6c-0.1,0.5-0.1,1,0,1.6c-0.1,2.8,0.4,4.8,0.8,5.9c-0.3,0.1-0.6,0.4-0.7,0.7l-3.8,7.1c-0.2,0.4-0.2,0.8-0.1,1.2   c0.1,0.4,0.4,0.7,0.7,0.9l14.3,7.4C41.2,111.2,41.4,111.2,41.7,111.2z M37.9,77.7l0.5,0.2c0.7,0.4,1.6,0.1,2-0.6l9.2-15.9   c0.3-0.6,1.1-0.9,1.6-0.6c0.2,0.1,0.3,0.3,0.4,0.5c0.1,0.3,0,0.6-0.1,0.9L42,78.2c0,0,0,0.1-0.1,0.1c-0.2,0.3-0.3,0.8-0.2,1.1   c0.1,0.4,0.3,0.7,0.7,1l0.6,0.4c0.3,0.2,0.8,0.3,1.2,0.2c0.4-0.1,0.7-0.4,0.9-0.7l3.7-6.4c0.3-0.6,1.1-0.9,1.6-0.6   c0.2,0.1,0.3,0.3,0.4,0.5c0.1,0.3,0,0.6-0.1,0.9l-3.9,6.8c-0.4,0.7-0.2,1.6,0.5,2l0.6,0.4c0.3,0.2,0.8,0.3,1.2,0.2   c0.4-0.1,0.7-0.4,0.9-0.7l3.6-6.2c0.3-0.6,1.1-0.9,1.6-0.6c0.2,0.1,0.3,0.3,0.4,0.5c0.1,0.3,0,0.6-0.1,0.9l-3.8,6.6   c-0.4,0.7-0.2,1.6,0.5,2l0.6,0.4c0.3,0.2,0.8,0.3,1.2,0.2c0.4-0.1,0.7-0.4,0.9-0.7l3-5.2c0.3-0.6,1.1-0.9,1.6-0.6   c0.2,0.1,0.3,0.3,0.4,0.5c0.1,0.3,0,0.6-0.1,0.9l-4.9,8.4c0,0.1-3.8,5.7-10.5,8.5l-10.5-5.3c-0.3-0.7-0.9-2.4-0.8-5.5   c0-0.1,0-0.3,0-0.4c0-0.2-0.1-0.3,0-0.5l0.5-2.5c0,0,0,0,0,0L36.2,69c0.1-0.6,0.8-1.1,1.4-1c0.3,0,0.5,0.2,0.7,0.4   c0.2,0.2,0.2,0.5,0.2,0.8l-1.3,6.9C36.9,76.7,37.3,77.4,37.9,77.7z M87.9,88.7l-33.3,6.4c1.6-1.7,2.5-3.1,2.6-3.2l4.9-8.5   c0-0.1,0.1-0.2,0.1-0.3L86,78.6L87.9,88.7z M27.2,50.9c-0.1-0.4,0-0.8,0.3-1.1c0.3-0.4,0.7-0.6,1.1-0.7L76.3,40   c0.9-0.2,1.8,0.4,1.9,1.2L83.7,70c0.2,0.8-0.5,1.6-1.4,1.8l-24,4.6c0-0.1,0-0.2,0-0.2c-0.3-1-1-1.8-1.9-2.3   c-0.8-0.4-1.7-0.5-2.6-0.3c0-0.2-0.1-0.5-0.1-0.7c-0.3-1-1-1.8-1.9-2.3c-0.5-0.3-1.1-0.4-1.6-0.4l3.8-6.5c0.6-1,0.7-2.2,0.4-3.3   c-0.3-1-1-1.8-1.9-2.3c-0.5-0.3-1.1-0.4-1.8-0.4c-1.5,0-3,0.8-3.8,2.2l-5.5,9.6c0.1-1-0.1-2-0.7-2.8C40,65.7,39.1,65.2,38,65   c-2.2-0.3-4.3,1.2-4.8,3.4l-1.3,7.1L27.2,50.9z M31.9,97.3l11.9,5.8l-2.7,4.6l-11.6-6L31.9,97.3z"/>
	<path class="st0" d="M247.2,208.9C247.2,208.9,247.2,208.9,247.2,208.9c1.7,0,3.1-1.5,4.5-2.9c0.6-0.7,1.5-1.5,1.9-1.7   c0.4-0.2,1.6-0.2,2.5-0.3c2-0.1,4-0.2,5.1-1.4c1.1-1.2,1.1-3.2,1.1-5.2c0-0.9,0-2.1,0.2-2.5c0.2-0.4,0.9-1.3,1.6-2   c1.3-1.4,2.7-2.9,2.6-4.6c0-1.7-1.5-3.1-2.9-4.5c-0.7-0.6-1.5-1.5-1.7-1.9c-0.2-0.4-0.2-1.6-0.3-2.5c-0.1-2-0.2-4-1.4-5.1   c-1.2-1.1-3.2-1.1-5.2-1.1c-0.9,0-2.1,0-2.5-0.2c-0.5-0.2-1.3-0.9-2-1.6c-1.4-1.3-3-2.7-4.6-2.6c-1.7,0-3.1,1.5-4.5,2.9   c-0.7,0.7-1.5,1.5-1.9,1.7c-0.4,0.2-1.6,0.2-2.5,0.3c-2,0.1-4,0.2-5.1,1.4c-1.1,1.2-1.1,3.2-1.1,5.2c0,0.9,0,2.1-0.2,2.5   c-0.2,0.4-0.9,1.3-1.6,2c-1.3,1.4-2.7,2.9-2.6,4.6c0,1.7,1.5,3.1,2.9,4.5c0.7,0.6,1.5,1.5,1.7,1.9c0.2,0.4,0.2,1.6,0.3,2.5   c0.1,2,0.2,4,1.4,5.1c0,0,0.1,0.1,0.2,0.1l-3.9,10c-0.2,0.6-0.1,1.2,0.4,1.6c0.4,0.4,1.1,0.5,1.7,0.3l6.3-3l2.9,6.6   c0.2,0.5,0.8,0.9,1.4,0.9c0,0,0,0,0,0c0.6,0,1.1-0.4,1.4-1L247.2,208.9C247.2,208.9,247.2,208.9,247.2,208.9z M234.6,198.1   c-0.1-1.4-0.1-2.6-0.5-3.6c-0.4-1-1.3-1.9-2.3-2.8c-0.7-0.7-1.9-1.9-2-2.4c0-0.5,1.2-1.8,1.9-2.5c0.9-1,1.8-1.9,2.2-2.9   c0.4-1,0.4-2.3,0.4-3.6c0-1,0-2.7,0.3-3.1c0.4-0.3,2.1-0.4,3.1-0.5c1.4-0.1,2.6-0.1,3.6-0.5c1-0.4,1.9-1.3,2.8-2.3   c0.7-0.7,1.9-1.9,2.4-2c0.5,0,1.8,1.2,2.5,1.9c1,0.9,1.9,1.8,2.9,2.2c1,0.4,2.3,0.4,3.6,0.4c1,0,2.7,0,3.1,0.3   c0.3,0.4,0.4,2.1,0.5,3.1c0.1,1.4,0.1,2.6,0.5,3.6c0.4,1,1.3,1.9,2.3,2.8c0.7,0.7,1.9,1.9,2,2.4c0,0.5-1.2,1.8-1.9,2.5   c-0.9,1-1.8,1.9-2.1,2.9c-0.4,1-0.4,2.3-0.4,3.6c0,1,0,2.7-0.3,3.1c-0.4,0.3-2.1,0.4-3.1,0.5c-1.4,0.1-2.6,0.1-3.6,0.5   c-1,0.4-1.9,1.3-2.8,2.3c-0.2,0.2-0.5,0.5-0.8,0.8l2.1-5.3c3.3-0.9,5.9-3.2,7.1-6.3c2.2-5.6-1-12-7.1-14.4c-1.5-0.6-3-0.9-4.6-0.9   c-4.7,0-8.8,2.6-10.4,6.7c-1.2,3-0.8,6.5,1,9.4l-2.2,5.6C234.6,199,234.6,198.5,234.6,198.1z M241.8,214.5l-2.1-4.7   c-0.2-0.4-0.5-0.7-0.8-0.8c-0.2-0.1-0.3-0.1-0.5-0.1c-0.2,0-0.4,0-0.6,0.1l-4.3,2l6.5-16.8c0.2-0.5,0.1-1-0.2-1.4   c-1.6-2.2-2-4.9-1.1-7.2c1.1-2.9,4.1-4.8,7.6-4.8c1.2,0,2.4,0.2,3.5,0.7c4.5,1.8,7,6.5,5.4,10.5c-0.9,2.3-3,4-5.7,4.6   c-0.5,0.1-0.9,0.5-1.1,0.9L241.8,214.5z"/>
	<path class="st0" d="M92.6,191l3.1,15.2l16.3,5.4l12.9-11.4l-3.1-15.2l11.6-10.3l-3.5-16.8l-16.3-5.4L102,162.7l-14.9-5l-12.9,11.4   l3.5,16.8L92.6,191z M111.4,208.2l-13-4.3l-2.8-13.5l10.3-9.1l13,4.3l2.8,13.5L111.4,208.2z M114.3,155.8l13,4.3l2.8,13.5   l-10.3,9.1l-1.7-0.6l-11.3-3.8L104,165L114.3,155.8z M87.8,161.2l13,4.3l2.8,13.5l-10.3,9.1l-13-4.3l-2.8-13.5L87.8,161.2z"/>
	<path class="st0" d="M165.1,264.4c-2.5,0-4.6,1.8-5.1,4.1c-0.5-2.3-2.6-4.1-5.1-4.1c-2.5,0-4.6,1.8-5.1,4.1   c-0.5-2.3-2.6-4.1-5.1-4.1c-2.9,0-5.2,2.3-5.2,5.2c0,2.9,2.3,5.2,5.2,5.2c2.5,0,4.6-1.8,5.1-4.1c0.5,2.3,2.6,4.1,5.1,4.1   c2.5,0,4.6-1.8,5.1-4.1c0.5,2.3,2.6,4.1,5.1,4.1c2.9,0,5.2-2.3,5.2-5.2C170.3,266.7,168,264.4,165.1,264.4z M144.8,271.8   c-1.2,0-2.2-1-2.2-2.2c0-1.2,1-2.2,2.2-2.2c1.2,0,2.2,1,2.2,2.2C147,270.8,146,271.8,144.8,271.8z M155,271.8c-1.2,0-2.2-1-2.2-2.2   c0-1.2,1-2.2,2.2-2.2c1.2,0,2.2,1,2.2,2.2C157.2,270.8,156.2,271.8,155,271.8z M165.1,271.8c-1.2,0-2.2-1-2.2-2.2   c0-1.2,1-2.2,2.2-2.2c1.2,0,2.2,1,2.2,2.2C167.3,270.8,166.3,271.8,165.1,271.8z"/>
	<path class="st0" d="M174.3,282.4c0,0,0.1,0,0.1,0c9.6-2.9,16.3-12,16.3-22.1c0-12.8-10.3-23.1-23-23.1c-11.3,0-20.9,8.3-22.7,19.4   h-3.2c-3.5,0-6.3,2.8-6.3,6.3v18.8c0,3.5,2.8,6.3,6.3,6.3h13.7l3.2,2.6c1.2,1.1,2.7,1.8,4.4,1.8c1.7,0,3.3-0.7,4.4-1.8   C170.3,288,173.6,284.6,174.3,282.4z M174.4,262.9c0.1-0.1,0.1-0.2,0.2-0.3c0.2-0.7,0.4-1.5,0.4-2.3c0-4-3.2-7.3-7.2-7.3   c-2.5,0-4.9,1.4-6.2,3.5h-4.9c1.6-4.7,6-8,11.1-8c6.4,0,11.7,5.3,11.7,11.7c0,3.9-1.9,7.4-5,9.6V262.9z M167.7,256   c1,0,1.9,0.4,2.6,0.9c-0.7-0.3-1.4-0.4-2.2-0.4h-2.4C166.3,256.2,167,256,167.7,256z M167.7,240.1c11,0,20,9,20,20.1   c0,8.5-5.4,16.1-13.3,19v-5.9c0.1,0,0.2-0.1,0.3-0.1c4.8-2.6,7.7-7.6,7.7-13c0-8.1-6.6-14.7-14.7-14.7c-6.6,0-12.5,4.6-14.2,11   h-5.5C149.8,247.1,158.1,240.1,167.7,240.1z M165.4,288.4c-1.2,1.2-3.4,1.2-4.6,0l-4.2-3.4h-14.8c-1.8,0-3.3-1.5-3.3-3.3v-18.8   c0-1.8,1.5-3.3,3.3-3.3h26.3c1.8,0,3.3,1.5,3.3,3.3l0,18.7C171.2,282.5,168.5,285.5,165.4,288.4z"/>
	<path class="st0" d="M321.7,73.5c-0.4,0.1-0.7,0.2-0.9,0.5c-0.2,0.2-18.9,22.5-33.1,44.4c-7.3,11.2-6,18.7-3.7,23   c3.3,6.1,9.8,8.4,10.9,8.4c0,0,0,0,0,0c0.1,0,0.3,0.1,0.6,0.1c1.1,0.3,3.1,0.7,5.3,0.7c4,0,10.8-1.7,11.4-13.3   c0.8-16,24.7-52,25-52.4c0.2-0.3,0.3-0.6,0.2-1c-0.1-0.7-0.2-1.4-0.4-2l9.6-12.7c0.3-0.4,0.4-1,0.2-1.5c-0.2-0.5-0.7-0.8-1.2-0.9   l-13.9-1.2c-0.5,0-1,0.2-1.3,0.6l-5.6,7.1c-0.2,0-0.4,0-0.6,0C322.7,73.4,321.7,73.5,321.7,73.5z M309.1,137.2   c-0.3,7-3.1,10.4-8.4,10.4c-1.8,0-3.6-0.4-4.6-0.7c-0.6-0.1-0.9-0.2-1.2-0.2c-0.9-0.2-6.5-2.5-8.8-7.7c-2.2-5.1-0.9-11.5,4-19   c13-20,29.8-40.3,32.5-43.6c0.3,0,0.8-0.1,1.4-0.1c4.2,0,9.3,1.3,10.2,7.4C331.3,88.3,309.9,121.2,309.1,137.2z M332.1,68.8   l10.4,0.9l-6.9,9.1c-1.6-2.6-4.1-4.3-7.5-5L332.1,68.8z"/>
	<path class="st0" d="M328.5,84.2l-5.8-2.6c-0.5-0.2-1.2-0.1-1.6,0.3c-5.9,5.5-31.4,44.5-32.5,46.2c-0.2,0.4-0.3,0.8-0.2,1.3   c0.1,0.4,0.5,0.8,0.9,0.9l11.4,4.6c0.2,0.1,0.4,0.1,0.6,0.1c0.3,0,0.5-0.1,0.8-0.2c0.4-0.2,0.7-0.7,0.7-1.1   c0.3-3.4,16.4-30.8,26.5-47.3c0.2-0.4,0.3-0.8,0.2-1.2C329.2,84.7,328.9,84.4,328.5,84.2z M300.3,131.5l-8.2-3.3   c4.7-7.1,24.4-36.9,30.4-43.4l3.3,1.5C320.3,95.1,303.5,123,300.3,131.5z"/>
	<path class="st0" d="M235.5,62.4c1.7-0.9,2.9-2.6,2.9-4.7c0.1-3.1-2.3-5.7-5.4-5.9c-3.1-0.1-5.7,2.3-5.9,5.4   c-0.1,1.5,0.5,2.9,1.5,4.1c0.3,0.3,0.7,0.6,1,0.9c-3,0.6-5.2,3.2-5.4,6.4l-0.2,5.6c0,0.4,0.1,0.8,0.4,1.1c0.3,0.3,0.6,0.5,1,0.5   l13,0.6c0,0,0,0,0.1,0c0.4,0,0.7-0.1,1-0.4c0.3-0.3,0.5-0.6,0.5-1l0.2-5.6C240.5,66.1,238.4,63.3,235.5,62.4z M232.8,54.8l0.1,0   c1.5,0.1,2.6,1.3,2.5,2.8c-0.1,1.4-1.2,2.5-2.6,2.5l-0.1,0c-0.7,0-1.4-0.3-1.8-0.9c-0.5-0.5-0.7-1.2-0.7-1.9   C230.3,55.9,231.4,54.8,232.8,54.8z M237.2,73.2l-10-0.4l0.2-4.1c0.1-2,1.8-3.7,3.8-3.7l2.5,0.1c2.1,0.1,3.8,1.9,3.7,4L237.2,73.2z   "/>
	<path class="st0" d="M219.8,81.3l46.5,2c0,0,0,0,0.1,0c0.8,0,1.5-0.6,1.5-1.4l1.4-32.4c0-0.8-0.6-1.5-1.4-1.6L247.5,47l0.1-2.7   c0-0.8-0.6-1.5-1.4-1.6c-0.8,0-1.5,0.6-1.6,1.4l-0.1,2.7l-23.2-1c-0.4,0-0.8,0.1-1.1,0.4c-0.3,0.3-0.5,0.6-0.5,1l-1.4,32.4   c0,0.4,0.1,0.8,0.4,1.1C219,81.1,219.4,81.2,219.8,81.3z M222.7,49l21.7,0.9l-0.1,2.2c0,0.8,0.6,1.5,1.4,1.6c0,0,0,0,0.1,0   c0.8,0,1.5-0.6,1.5-1.4l0.1-2.2l18.8,0.8l-1.3,29.4l-43.5-1.9L222.7,49z"/>
	<path class="st0" d="M260.6,57.2l-15-0.6c-0.9,0-1.5,0.6-1.6,1.4c0,0.8,0.6,1.5,1.4,1.6l15,0.6c0,0,0,0,0.1,0   c0.8,0,1.5-0.6,1.5-1.4C262.1,57.9,261.4,57.2,260.6,57.2z"/>
	<path class="st0" d="M260.3,63.8l-15-0.6c-0.8,0-1.5,0.6-1.6,1.4c0,0.8,0.6,1.5,1.4,1.6l15,0.6c0,0,0,0,0.1,0   c0.8,0,1.5-0.6,1.5-1.4C261.8,64.5,261.1,63.8,260.3,63.8z"/>
	<path class="st0" d="M260,70.4l-15-0.6c-0.8,0-1.5,0.6-1.6,1.4c0,0.8,0.6,1.5,1.4,1.6l15,0.6c0,0,0,0,0.1,0c0.8,0,1.5-0.6,1.5-1.4   C261.5,71.2,260.8,70.5,260,70.4z"/>
	<path class="st0" d="M129.7,115.8L99.6,91.7c-0.6-0.5-1.4-0.8-2.3-0.8c-1.1,0-2.1,0.5-2.8,1.4l-26.4,33c-1.2,1.6-1,3.8,0.6,5.1   l30.1,24.1c0.6,0.5,1.4,0.8,2.3,0.8c1.1,0,2.1-0.5,2.8-1.4l26.4-33c0.6-0.8,0.9-1.7,0.8-2.7C130.9,117.2,130.4,116.4,129.7,115.8z    M127.9,119l-26.4,33c-0.1,0.1-0.3,0.2-0.5,0.2c-0.1,0-0.2,0-0.4-0.1L70.6,128c-0.3-0.2-0.3-0.6-0.1-0.9l26.4-33   c0.1-0.1,0.3-0.2,0.5-0.2c0.1,0,0.2,0,0.4,0.1l30.1,24.1c0.2,0.1,0.2,0.3,0.2,0.4C128,118.6,128,118.8,127.9,119z"/>
	<path class="st0" d="M92.3,107.9l9,7.2c0.3,0.2,0.6,0.3,0.9,0.3c0.4,0,0.9-0.2,1.2-0.6l4.5-5.6c0.2-0.3,0.4-0.7,0.3-1.1   c0-0.4-0.2-0.8-0.6-1l-9-7.2c-0.6-0.5-1.6-0.4-2.1,0.2l-4.5,5.6c-0.2,0.3-0.4,0.7-0.3,1.1C91.8,107.3,92,107.7,92.3,107.9z    M98,103.3l6.6,5.3l-2.6,3.2l-6.6-5.3L98,103.3z"/>
	<path class="st0" d="M119.8,121l-10.5-8.4c-0.6-0.5-1.6-0.4-2.1,0.2c-0.5,0.6-0.4,1.6,0.2,2.1l10.5,8.4c0.3,0.2,0.6,0.3,0.9,0.3   c0.4,0,0.9-0.2,1.2-0.6C120.6,122.4,120.5,121.5,119.8,121z"/>
	<path class="st0" d="M84.5,117.8l9,7.2c0.3,0.2,0.6,0.3,0.9,0.3c0.4,0,0.9-0.2,1.2-0.6l4.5-5.6c0.5-0.6,0.4-1.6-0.2-2.1l-9-7.2   c-0.3-0.2-0.7-0.4-1.1-0.3c-0.4,0-0.8,0.2-1,0.6l-4.5,5.6C83.7,116.3,83.8,117.2,84.5,117.8z M90.1,113.1l6.6,5.3l-2.6,3.2   l-6.6-5.3L90.1,113.1z"/>
	<path class="st0" d="M112,130.8l-10.5-8.4c-0.6-0.5-1.6-0.4-2.1,0.2c-0.5,0.6-0.4,1.6,0.2,2.1l10.5,8.4c0.3,0.2,0.6,0.3,0.9,0.3   c0.4,0,0.9-0.2,1.2-0.6C112.7,132.2,112.6,131.3,112,130.8z"/>
	<path class="st0" d="M91.9,126.8l-9-7.2c-0.3-0.2-0.7-0.4-1.1-0.3c-0.4,0-0.8,0.2-1,0.6l-4.5,5.6c-0.5,0.6-0.4,1.6,0.2,2.1l9,7.2   c0.3,0.2,0.6,0.3,0.9,0.3c0.1,0,0.1,0,0.2,0c0.4,0,0.8-0.2,1-0.6l4.5-5.6C92.7,128.3,92.6,127.4,91.9,126.8z M86.3,131.5l-6.6-5.3   l2.6-3.2l6.6,5.3L86.3,131.5z"/>
	<path class="st0" d="M104.1,140.6l-10.5-8.4c-0.6-0.5-1.6-0.4-2.1,0.2c-0.5,0.6-0.4,1.6,0.2,2.1l10.5,8.4c0.3,0.2,0.6,0.3,0.9,0.3   c0.4,0,0.9-0.2,1.2-0.6C104.9,142,104.8,141.1,104.1,140.6z"/>
	<path class="st0" d="M231.7,320.5c1.8-6.2,0.4-13-0.8-15.3c2-1.3,3.5-3,4.5-5.1c1.9-3.9,1.6-8.5-0.7-13c-2.3-4.3-6.3-8.1-11.3-10.5   s-10.4-3.3-15.3-2.4c-4.5,0.8-8,3.1-10.1,6.4c-1.4-0.4-3-0.1-4.4,0.7c-1.4,0.8-2.7,2.2-3.5,3.8c-1.7,3.4-0.7,6.5,0.6,9.7l0.3,0.8   c0.9,2.2,1.4,3.5,1,5.7c-0.3,1.4-0.9,2.9-1.6,4c-1.2,1.8-3.2,1.8-6.5,1.5c-0.4,0-0.8-0.1-1.2-0.1c-0.8-0.1-1.5,0.6-1.6,1.4   c-0.1,0.8,0.6,1.5,1.4,1.6c0.4,0,0.7,0.1,1.1,0.1c0.9,0.1,1.9,0.2,2.8,0.2c2.4,0,4.8-0.5,6.4-3c0.9-1.4,1.6-3.2,2-5   c0.6-3.2-0.2-5.2-1.1-7.5l-0.3-0.8c-1.1-2.7-1.8-4.9-0.7-7.2c0.5-1.1,1.4-2,2.3-2.5c0.5-0.3,1.1-0.4,1.6-0.4   c-1.6,5.2,0.3,11.5,5.3,16.5l1.8,3.9c-1.5-1.2-3.9-1.2-5.3,0.1c-1.6,1.5-1.6,4.1,0,5.7l12.5,13.1c0.4,0.4,0.8,0.7,1.2,0.9   c3.8,3,6.4,3.2,6.7,3.2c0,0,0.1,0,0.1,0c0.2,0,0.4,0,0.6-0.1l11.2-5.2C231.3,321.3,231.6,320.9,231.7,320.5z M208.6,277.1   c4.2-0.8,9,0,13.4,2.1c4.4,2.2,8,5.4,10,9.2c1.9,3.6,2.2,7.3,0.7,10.3c-0.7,1.4-1.7,2.6-3,3.6l-2.7-5.9c-0.7-1.5-2.1-2.4-3.7-2.4   c-0.5,0-1.1,0.1-1.5,0.3c-0.7,0.3-1.2,0.8-1.6,1.4c-1.1-0.9-2.7-1.2-4-0.6c-0.8,0.4-1.4,1-1.8,1.8c-1.1-0.6-2.4-0.7-3.5-0.2   c-0.5,0.2-0.9,0.6-1.3,1l-3.1-6.7c-0.7-1.5-2.1-2.4-3.7-2.4c-0.5,0-1.1,0.1-1.5,0.3c-0.7,0.3-1.2,0.8-1.6,1.4   c-0.8-2.6-0.6-5.2,0.4-7.5C201.6,280,204.6,277.9,208.6,277.1z M229,319l-10.2,4.7c-0.7-0.2-2.5-0.7-4.9-2.6   c-0.1-0.1-0.2-0.2-0.4-0.2c-0.2-0.1-0.3-0.2-0.4-0.3l-12.5-13.1c-0.4-0.4-0.5-1.1-0.1-1.5c0.2-0.2,0.4-0.2,0.6-0.2   c0.3,0,0.6,0.1,0.9,0.4l4.8,5c0.4,0.5,1.1,0.6,1.7,0.3l0.4-0.2c0.8-0.3,1.1-1.2,0.7-2l-7.5-16.2c-0.1-0.3-0.2-0.6-0.1-0.9   c0-0.1,0.1-0.4,0.4-0.5c0.4-0.2,1,0,1.3,0.6l7.6,16.4c0,0,0,0.1,0,0.1c0.3,0.7,1.1,1.1,1.9,0.9l0.7-0.2c0.4-0.1,0.7-0.4,0.9-0.8   c0.2-0.4,0.2-0.8,0-1.2l-3-6.5c-0.3-0.5-0.1-1.2,0.3-1.4c0.4-0.2,1,0,1.3,0.6l3.2,7c0.3,0.7,1.1,1,1.9,0.8l0.7-0.2   c0.4-0.1,0.7-0.4,0.9-0.8c0.2-0.4,0.2-0.8,0-1.2l-2.9-6.3c-0.3-0.5-0.1-1.2,0.3-1.4c0.4-0.2,1,0,1.3,0.6l3.1,6.7   c0.3,0.7,1.1,1,1.9,0.8l0.7-0.2c0.4-0.1,0.7-0.4,0.9-0.8c0.2-0.4,0.2-0.8,0-1.2l-2.5-5.3c-0.3-0.5-0.1-1.2,0.3-1.4   c0.4-0.2,1,0,1.3,0.6l4,8.6C228.3,306.4,230.7,312.4,229,319z"/>
	<path class="st0" d="M204.4,286.7l6.6,3.2c0.2,0.1,0.4,0.2,0.7,0.2c0.6,0,1.1-0.3,1.4-0.8c0.4-0.7,0.1-1.6-0.7-2l-6.6-3.2   c-0.7-0.4-1.6-0.1-2,0.7C203.4,285.5,203.7,286.4,204.4,286.7z"/>
	<path class="st0" d="M221.6,235.6c-0.7-0.5-1.6-0.3-2.1,0.4c-0.5,0.7-0.3,1.6,0.4,2.1c0.5,0.4,5.2,3.7,2.1,8.4   c-0.5,0.7-0.3,1.6,0.4,2.1c0.3,0.2,0.5,0.2,0.8,0.2c0.5,0,1-0.2,1.3-0.7C228.3,242.3,224.2,237.4,221.6,235.6z"/>
	<path class="st0" d="M230.8,243.5c0-7.4-6-13.4-13.4-13.4c-7.4,0-13.4,6-13.4,13.4c0,5.3,5.4,10.2,5.6,10.4c0.5,0.5,1,1.6,1,2.3   v3.6c0,1.9,1.6,3.5,3.5,3.5h6.5c1.9,0,3.5-1.6,3.5-3.5v-3.6c0-0.7,0.5-1.8,1-2.3C225.4,253.8,230.8,248.8,230.8,243.5z    M223.2,251.7c-1.1,1-2,3-2,4.5v3.6c0,0.3-0.2,0.5-0.5,0.5h-6.5c-0.3,0-0.5-0.2-0.5-0.5v-3.6c0-1.5-0.9-3.5-2-4.5   c-1.3-1.2-4.7-4.9-4.7-8.2c0-5.7,4.7-10.4,10.4-10.4c5.7,0,10.4,4.7,10.4,10.4C227.8,246.8,224.5,250.6,223.2,251.7z"/>
	<path class="st0" d="M191.2,245.2l9.9-1.7c0.8-0.1,1.4-0.9,1.2-1.7c-0.1-0.8-0.9-1.4-1.7-1.2l-9.9,1.7c-0.8,0.1-1.4,0.9-1.2,1.7   c0.1,0.7,0.8,1.2,1.5,1.2C191.1,245.2,191.1,245.2,191.2,245.2z"/>
	<path class="st0" d="M245.3,243.5c-0.1-0.8-0.9-1.4-1.7-1.2l-9.9,1.7c-0.8,0.1-1.4,0.9-1.2,1.7c0.1,0.7,0.8,1.2,1.5,1.2   c0.1,0,0.2,0,0.3,0l9.9-1.7C244.9,245.1,245.5,244.3,245.3,243.5z"/>
	<path class="st0" d="M217.2,216.2c-0.8,0.1-1.4,0.9-1.2,1.7l1.7,9.8c0.1,0.7,0.8,1.2,1.5,1.2c0.1,0,0.2,0,0.3,0   c0.8-0.1,1.4-0.9,1.2-1.7l-1.7-9.8C218.8,216.6,218,216,217.2,216.2z"/>
	<path class="st0" d="M199.6,224.1c-0.7-0.5-1.6-0.3-2.1,0.4c-0.5,0.7-0.3,1.6,0.4,2.1l8.2,5.7c0.3,0.2,0.6,0.3,0.9,0.3   c0.5,0,0.9-0.2,1.2-0.6c0.5-0.7,0.3-1.6-0.4-2.1L199.6,224.1z"/>
	<path class="st0" d="M227.1,257.7l8.2,5.7c0.3,0.2,0.6,0.3,0.9,0.3c0.5,0,0.9-0.2,1.2-0.6c0.5-0.7,0.3-1.6-0.4-2.1l-8.2-5.7   c-0.7-0.5-1.6-0.3-2.1,0.4C226.2,256.3,226.4,257.2,227.1,257.7z"/>
	<path class="st0" d="M230.3,234.9c0.5,0,0.9-0.2,1.2-0.6l5.8-8.1c0.5-0.7,0.3-1.6-0.3-2.1c-0.7-0.5-1.6-0.3-2.1,0.3l-5.8,8.1   c-0.5,0.7-0.3,1.6,0.3,2.1C229.7,234.8,230,234.9,230.3,234.9z"/>
	<path class="st0" d="M197.8,263.4c0.3,0.2,0.6,0.3,0.9,0.3c0.5,0,0.9-0.2,1.2-0.6l5.8-8.1c0.5-0.7,0.3-1.6-0.3-2.1   c-0.7-0.5-1.6-0.3-2.1,0.3l-5.8,8.1C197,262,197.2,262.9,197.8,263.4z"/>
	<path class="st0" d="M222.8,264.7h-10.4c-0.8,0-1.5,0.7-1.5,1.5c0,0.8,0.7,1.5,1.5,1.5h10.4c0.8,0,1.5-0.7,1.5-1.5   C224.3,265.4,223.6,264.7,222.8,264.7z"/>
	<path class="st0" d="M222.8,269.2h-10.4c-0.8,0-1.5,0.7-1.5,1.5c0,0.8,0.7,1.5,1.5,1.5h10.4c0.8,0,1.5-0.7,1.5-1.5   C224.3,269.8,223.6,269.2,222.8,269.2z"/>
	<path class="st0" d="M231.8,84.9c-1.7,0.9-3,2.3-3.6,4.2l-0.4,1.4c-0.1,0.3-0.1,0.5-0.2,0.8c-0.1,0.1-0.1,0.2-0.2,0.3l-3.4,10.7   c-4.8,0.9-9.1,3.3-12.4,6.8c0,0,0,0,0,0c-2.4,2.5-4.2,5.6-5.3,9.1c-1.1,3.5-1.3,7-0.8,10.4c0,0.1,0,0.3,0.1,0.4   c0.8,4.8,3.1,9.3,6.6,12.7l-0.9,2.7c-0.1,0.2-0.1,0.4-0.1,0.5c0.1,1.2,0.4,2.3,0.9,3.2c1.5,2.8,5.3,4.1,5.7,4.3l44.4,14   c0.1,0,0.3,0.1,0.4,0.1c0.2,0,0.5-0.1,0.7-0.2c0.4-0.2,0.6-0.5,0.7-0.9l16.5-52.4c0.2-0.8-0.2-1.6-1-1.9l-1.9-0.6   c-1.5-2.1-2.2-4.2-1.8-6c0.3-2,1.7-3.3,2.4-4l1.8,0.6c0.8,0.2,1.6-0.2,1.9-1c0.2-0.8-0.2-1.6-1-1.9l-43.8-13.8   C235.5,83.9,233.5,84,231.8,84.9z M208.5,127.3c-0.2-2.2-0.1-4.5,0.4-6.8l4.7,1.5c-0.6,2.2-1,4.4-1.1,6.6L208.5,127.3z    M213.3,111.8l4,1.3c-1.1,1.8-2.1,3.9-2.9,6.1l-4.7-1.5C210.6,115.4,211.8,113.5,213.3,111.8z M248.1,122.7   c0.2,2.2,0.1,4.5-0.4,6.8L243,128c0.6-2.2,1-4.4,1.1-6.6L248.1,122.7z M240.1,127.1l-5-1.6c0.7-2.2,1.2-4.4,1.6-6.5l4.4,1.4   C241.1,122.7,240.7,124.9,240.1,127.1z M222.1,134.7l5.6,1.8c-2.4,4.9-4.6,7.5-5.5,7.7C221.6,143.5,221.3,140.2,222.1,134.7z    M234.5,115.2l-5.6-1.8c2.4-5,4.6-7.6,5.4-7.7c0,0,0,0,0,0C235,106.4,235.3,109.8,234.5,115.2z M225.2,122.5   c0.8-2.3,1.6-4.4,2.3-6.2l6.4,2c-0.4,2-0.9,4.1-1.6,6.5L225.2,122.5z M225.9,112.6l-3.8-1.2c2.4-2.9,5.1-4.9,7.8-5.6   C228.5,107.5,227.2,110,225.9,112.6z M224.7,115.3c-0.9,2.1-1.7,4.3-2.4,6.2l-5-1.6c0.8-2.2,1.8-4.2,2.9-6L224.7,115.3z    M231.4,127.5c-0.8,2.3-1.6,4.4-2.3,6.2l-6.4-2c0.4-2,0.9-4.1,1.6-6.5L231.4,127.5z M226.6,144.2c1.4-1.8,2.8-4.2,4-6.8l3.8,1.2   C232.1,141.5,229.4,143.5,226.6,144.2z M231.9,134.7c0.9-2.1,1.7-4.3,2.4-6.2l5,1.6c-0.8,2.2-1.8,4.2-2.9,6L231.9,134.7z    M237.3,116.2c0.3-1.6,0.5-3.1,0.5-4.5c0.1-1.2,0.1-2.3,0-3.3c1.1,1.4,2,3.1,2.6,5.3c0.3,1.2,0.5,2.4,0.6,3.7L237.3,116.2z    M219.1,110.4l-3.3-1c2.4-2,5.3-3.4,8.5-4.1C222.4,106.6,220.7,108.4,219.1,110.4z M216.5,122.9l5,1.6c-0.7,2.2-1.2,4.4-1.6,6.5   l-4.4-1.4C215.5,127.3,215.9,125.1,216.5,122.9z M219.2,133.8c-0.3,1.6-0.5,3.1-0.6,4.5c-0.1,1.2-0.1,2.3,0,3.3   c-1.1-1.4-2-3.1-2.6-5.3c-0.3-1.2-0.5-2.4-0.6-3.7L219.2,133.8z M237.5,139.6l3.3,1c-2.4,2-5.3,3.4-8.5,4.1   C234.2,143.3,235.9,141.6,237.5,139.6z M243.3,138.2l-4-1.3c1.1-1.8,2.1-3.9,2.9-6.1l4.7,1.5C245.9,134.6,244.7,136.5,243.3,138.2z    M244.2,118.3c-0.1-1.9-0.3-3.7-0.7-5.4c-0.1-0.6-0.3-1.1-0.5-1.6c2.1,2.3,3.7,5.1,4.5,8.1L244.2,118.3z M209.1,130.7l3.3,1   c0.1,1.9,0.3,3.7,0.7,5.4c0.1,0.6,0.3,1.1,0.5,1.6C211.5,136.4,210,133.7,209.1,130.7z M261.9,163.1l-43-13.5   c-0.8-0.3-3.2-1.4-4-2.8c-0.3-0.5-0.4-1.1-0.5-1.7l0.4-1.3c2,1.4,4.2,2.6,6.6,3.3c2.2,0.7,4.5,1.1,6.8,1.1c10.1,0,18.9-6.5,22-16.2   c1.1-3.5,1.3-7,0.8-10.4c0-0.2,0-0.3-0.1-0.5c-1.4-8.3-7.2-15.5-15.7-18.1c-2.2-0.7-4.5-1.1-6.8-1.1c-0.3,0-0.7,0-1,0l1.6-5.1   c0.9,1.2,2.2,2.1,3.7,2.6l44.8,14.1L261.9,163.1z M273.7,109.1l-40.2-12.6c-1.1-0.3-2-1.1-2.5-2.1c-0.5-1-0.6-2.1-0.3-3.1l0.4-1.4   c0.3-1,1.1-1.9,2-2.4c1-0.5,2.2-0.6,3.2-0.3l38.8,12.2c-0.9,1.1-1.8,2.5-2.2,4.4C272.7,105.6,273,107.4,273.7,109.1z"/>
	<path class="st0" d="M126.8,237.2c0.3,0.2,0.6,0.4,1,0.4c0.4,0,0.8-0.2,1.1-0.5l18.7-21.9l-7.5,27.8c-0.2,0.8,0.3,1.6,1.1,1.8   c0.1,0,0.3,0.1,0.4,0.1c0.7,0,1.3-0.4,1.4-1.1l8.8-32.4l14.3,15.7l0.9,1l0.4-0.3c1.4,0.2,3.2-0.5,4.6-1.5c1.6-1.1,2.7-2.3,3-3.4   l0.7-0.3l-27.6-45l0,0c0,0,0-0.1-0.1-0.1c-0.6-0.8-1.8-1.7-4.1-1.7c-2.3,0-5.1,1-7.7,2.7c-3.1,2.1-5.2,4.7-5.6,7.2   c-0.2,1.2,0,2.4,0.7,3.2c0,0,0.1,0.1,0.1,0.1l0,0l0,0c0.1,0.1,0.2,0.2,0.3,0.3l17.4,19.1l-31.2,14c-0.8,0.3-1.1,1.2-0.8,2   c0.3,0.8,1.2,1.1,2,0.8l26.2-11.8l-18.7,21.9C126.1,235.7,126.2,236.7,126.8,237.2z M147.9,182.8l6.3,10.3l0,0   c0.1,0.1,0.1,0.4,0.1,0.5c-0.2,1-1.3,2.6-3.4,4c-2.9,1.9-5.5,2-6,1.4l0,0l-8-8.8c2-0.3,4.2-1.2,6.3-2.5   C145.3,186.3,146.9,184.6,147.9,182.8z M152.5,200.2c1.7-1.1,3-2.4,3.8-3.7l9,14.7c0,0.3-0.5,1.6-2.3,2.8c-1.9,1.3-3.5,1.3-3.7,1.1   l-11.6-12.7C149.2,202,150.9,201.3,152.5,200.2z M172,222.1c-0.2,0.3-0.8,0.9-1.7,1.5c-1.1,0.7-1.9,1-2.3,1l-6.3-6.9   c0.9-0.3,1.9-0.7,2.9-1.4c1-0.7,1.8-1.4,2.5-2.3l4.2,6.8L172,222.1z M133.5,185.9c0.2-1.3,1.6-3.4,4.3-5.2c2-1.4,4.3-2.2,6-2.2   c0.8,0,1.5,0.2,1.7,0.5l0,0c0.1,0.2,0.2,0.5,0.1,0.9c-0.2,1.3-1.6,3.4-4.3,5.2c-2,1.4-4.3,2.2-6,2.2c-0.8,0-1.4-0.2-1.7-0.5   l-0.1-0.1C133.5,186.6,133.5,186.3,133.5,185.9z"/>
	<path class="st0" d="M297.9,256.2v-35c0-2.8-2.2-5-5-5H289v-2.9c0-0.8-0.7-1.5-1.5-1.5c-0.8,0-1.5,0.7-1.5,1.5v2.9h-4.2v-2.9   c0-0.8-0.7-1.5-1.5-1.5c-0.8,0-1.5,0.7-1.5,1.5v2.9h-4.2v-2.9c0-0.8-0.7-1.5-1.5-1.5c-0.8,0-1.5,0.7-1.5,1.5v2.9h-4.2v-2.9   c0-0.8-0.7-1.5-1.5-1.5c-0.8,0-1.5,0.7-1.5,1.5v2.9h-4.2v-2.9c0-0.8-0.7-1.5-1.5-1.5c-0.8,0-1.5,0.7-1.5,1.5v2.9h-3.9   c-2.8,0-5,2.3-5,5v35c0,2.8,2.2,5.1,5,5.1h39.5C295.7,261.3,297.9,259,297.9,256.2z M294.9,256.2c0,1.1-0.9,2.1-2,2.1h-39.5   c-1.1,0-2-0.9-2-2.1v-35c0-1.1,0.9-2,2-2h3.9v1c0,0.8,0.7,1.5,1.5,1.5c0.8,0,1.5-0.7,1.5-1.5v-1h4.2v1c0,0.8,0.7,1.5,1.5,1.5   c0.8,0,1.5-0.7,1.5-1.5v-1h4.2v1c0,0.8,0.7,1.5,1.5,1.5c0.8,0,1.5-0.7,1.5-1.5v-1h4.2v1c0,0.8,0.7,1.5,1.5,1.5   c0.8,0,1.5-0.7,1.5-1.5v-1h4.2v1c0,0.8,0.7,1.5,1.5,1.5c0.8,0,1.5-0.7,1.5-1.5v-1h3.9c1.1,0,2,0.9,2,2V256.2z"/>
	<path class="st0" d="M291.1,228.3h-35.5c-0.8,0-1.5,0.7-1.5,1.5v24.4c0,0.8,0.7,1.5,1.5,1.5h35.5c0.8,0,1.5-0.7,1.5-1.5v-24.4   C292.6,229,291.9,228.3,291.1,228.3z M289.6,252.8h-32.5v-21.4h32.5V252.8z"/>
	<path class="st0" d="M261.9,237.8h3.1c0.8,0,1.5-0.7,1.5-1.5c0-0.8-0.7-1.5-1.5-1.5h-3.1c-0.8,0-1.5,0.7-1.5,1.5   C260.4,237.1,261,237.8,261.9,237.8z"/>
	<path class="st0" d="M271.8,237.8h3.1c0.8,0,1.5-0.7,1.5-1.5c0-0.8-0.7-1.5-1.5-1.5h-3.1c-0.8,0-1.5,0.7-1.5,1.5   C270.3,237.1,270.9,237.8,271.8,237.8z"/>
	<path class="st0" d="M281.7,237.8h3.1c0.8,0,1.5-0.7,1.5-1.5c0-0.8-0.7-1.5-1.5-1.5h-3.1c-0.8,0-1.5,0.7-1.5,1.5   C280.2,237.1,280.8,237.8,281.7,237.8z"/>
	<path class="st0" d="M261.9,243.6h3.1c0.8,0,1.5-0.7,1.5-1.5s-0.7-1.5-1.5-1.5h-3.1c-0.8,0-1.5,0.7-1.5,1.5S261,243.6,261.9,243.6z   "/>
	<path class="st0" d="M271.8,243.6h3.1c0.8,0,1.5-0.7,1.5-1.5s-0.7-1.5-1.5-1.5h-3.1c-0.8,0-1.5,0.7-1.5,1.5   S270.9,243.6,271.8,243.6z"/>
	<path class="st0" d="M281.7,243.6h3.1c0.8,0,1.5-0.7,1.5-1.5s-0.7-1.5-1.5-1.5h-3.1c-0.8,0-1.5,0.7-1.5,1.5   S280.8,243.6,281.7,243.6z"/>
	<path class="st0" d="M261.9,249.3h3.1c0.8,0,1.5-0.7,1.5-1.5s-0.7-1.5-1.5-1.5h-3.1c-0.8,0-1.5,0.7-1.5,1.5S261,249.3,261.9,249.3z   "/>
	<path class="st0" d="M271.8,249.3h3.1c0.8,0,1.5-0.7,1.5-1.5s-0.7-1.5-1.5-1.5h-3.1c-0.8,0-1.5,0.7-1.5,1.5   S270.9,249.3,271.8,249.3z"/>
	<path class="st0" d="M281.7,249.3h3.1c0.8,0,1.5-0.7,1.5-1.5s-0.7-1.5-1.5-1.5h-3.1c-0.8,0-1.5,0.7-1.5,1.5   S280.8,249.3,281.7,249.3z"/>
	<path class="st0" d="M51,171.1c11.4,0,20.6-9.3,20.6-20.6c0-11.4-9.3-20.6-20.6-20.6c-11.4,0-20.6,9.3-20.6,20.6   C30.4,161.8,39.6,171.1,51,171.1z M51,132.8c9.7,0,17.6,7.9,17.6,17.6c0,9.7-7.9,17.6-17.6,17.6c-9.7,0-17.6-7.9-17.6-17.6   C33.4,140.7,41.3,132.8,51,132.8z"/>
	<path class="st0" d="M54.9,175.6c0-0.8-0.7-1.5-1.5-1.5h-6c-0.8,0-1.5,0.7-1.5,1.5v3.7c0,0.8,0.7,1.5,1.5,1.5h6   c0.8,0,1.5-0.7,1.5-1.5v-0.7c13.1-0.8,23.7-11.4,24.3-24.6c1.6-0.6,2.7-2.1,2.7-3.9c0-2.3-1.9-4.1-4.1-4.1c-2.3,0-4.1,1.9-4.1,4.1   c0,1.7,1.1,3.2,2.6,3.8C75.6,165.5,66.4,174.8,54.9,175.6z M51.9,177.8h-3v-0.7h3V177.8z M77.7,149c0.6,0,1.1,0.5,1.1,1.1   c0,0.6-0.5,1.1-1.1,1.1c-0.6,0-1.1-0.5-1.1-1.1C76.6,149.5,77.1,149,77.7,149z"/>
	<path class="st0" d="M39.6,155.3c-0.7-1.5-1-3.2-1-4.9c0-6.8,5.5-12.4,12.4-12.4c1.7,0,3.3,0.3,4.8,1c0.8,0.3,1.6,0,2-0.8   c0.3-0.8,0-1.6-0.8-2c-1.9-0.8-3.9-1.2-6-1.2c-8.5,0-15.4,6.9-15.4,15.4c0,2.1,0.4,4.1,1.2,6c0.2,0.6,0.8,0.9,1.4,0.9   c0.2,0,0.4,0,0.6-0.1C39.6,156.9,40,156.1,39.6,155.3z"/>
	<path class="st0" d="M51,143.3c-3.9,0-7.2,3.2-7.2,7.2c0,3.9,3.2,7.2,7.2,7.2c3.9,0,7.2-3.2,7.2-7.2   C58.2,146.5,54.9,143.3,51,143.3z M51,154.6c-2.3,0-4.2-1.9-4.2-4.2c0-2.3,1.9-4.2,4.2-4.2c2.3,0,4.2,1.9,4.2,4.2   C55.2,152.7,53.3,154.6,51,154.6z"/>
	<path class="st0" d="M15.4,274.8c0.1,0.8,0.7,1.3,1.5,1.3c0.1,0,0.1,0,0.2,0c0.8-0.1,1.4-0.8,1.3-1.7c-0.2-2.1,0.2-4.2,1.2-6   c1.3-2.3,3.4-3.9,5.9-4.6c2.5-0.7,5.2-0.3,7.4,1c0.7,0.4,1.6,0.2,2-0.5c0.4-0.7,0.2-1.6-0.5-2c-3-1.7-6.4-2.2-9.7-1.3   c-3.3,0.9-6.1,3-7.8,6C15.6,269.3,15.1,272,15.4,274.8z"/>
	<path class="st0" d="M10.6,371.7c0,0-0.4-0.9-0.2-2.6c0.1-0.3,0.6-1.4,0.9-2.1c0.7-1.3,1.3-2.6,1.4-3.5c0.7-4.7-1.9-7.3-4.7-7.9   c-3.1-0.6-6.8,1.2-7.7,5.1c-0.2,0.8,0.3,1.6,1.1,1.8c0.8,0.2,1.6-0.3,1.8-1.1c0.5-2.1,2.5-3.1,4.2-2.8c1.8,0.3,2.7,2,2.3,4.5   c-0.1,0.5-0.7,1.8-1.1,2.7c-0.7,1.4-1.1,2.3-1.2,3c-0.4,2.8,0.4,4.3,0.6,4.6c0.3,0.5,0.8,0.7,1.3,0.7c0.3,0,0.5-0.1,0.8-0.2   C10.9,373.3,11.1,372.4,10.6,371.7z"/>
	<path class="st0" d="M12.3,376c-0.3-0.8-1.2-1.2-1.9-0.9c-0.8,0.3-1.2,1.2-0.9,1.9l0.6,1.6c0.2,0.6,0.8,1,1.4,1   c0.2,0,0.4,0,0.5-0.1c0.8-0.3,1.2-1.2,0.9-1.9L12.3,376z"/>
	<path class="st0" d="M56.2,186.9c-0.2-0.8-1.1-1.3-1.9-1l-37.6,10.8l0.8-2.1c0-0.1,0-0.1,0.1-0.2c0,0,0,0,0.1,0l7.5-8.4   c0.2-0.3,0.3-0.6,0.4-0.9c0.1-0.1,0.1-0.2,0.1-0.3c2-7.9,2.1-39.8,2.1-41.1c0-0.8-0.6-1.4-1.4-1.5l-11.3-1c-0.6,0-1.2,0.3-1.4,0.8   c-2.1,3.7-7.7,36.3-8.4,40c0,0.1,0,0.2,0,0.3C5.1,182.4,5,182.7,5,183c0.2,2.9,4.1,9.1,5.1,10.6l-0.7,4.6c0,0.2,0,0.4,0,0.6l-7,2   c-0.8,0.2-1.3,1.1-1,1.9c0.2,0.7,0.8,1.1,1.4,1.1c0.1,0,0.3,0,0.4-0.1l51.8-14.9C56,188.5,56.4,187.7,56.2,186.9z M15.9,144.2   l8.8,0.7c0,6.2-0.3,31.2-1.9,38.5c0,0,0,0,0,0c-3.5,0-11.2-1.3-14.5-1.8C10.6,168.9,14.3,149,15.9,144.2z M13.7,196l-1,0.3l0.3-1.8   l1.3,0.1L13.7,196z M12.3,191.5c-1.3-2-2.8-4.8-3.7-6.7c3,0.5,8.3,1.4,12,1.6l-4.8,5.4L12.3,191.5z"/>
	<path class="st0" d="M347.6,241.8l16.4,6.2c0.2,0.1,0.4,0.1,0.5,0.1c0.6,0,1.2-0.4,1.4-1c0.3-0.8-0.1-1.6-0.9-1.9l-16.4-6.2   c-0.8-0.3-1.6,0.1-1.9,0.9C346.5,240.7,346.8,241.5,347.6,241.8z"/>
	<path class="st0" d="M350.2,235.1l16.4,6.2c0.2,0.1,0.4,0.1,0.5,0.1c0.6,0,1.2-0.4,1.4-1c0.3-0.8-0.1-1.6-0.9-1.9l-16.4-6.2   c-0.8-0.3-1.6,0.1-1.9,0.9C349,233.9,349.4,234.8,350.2,235.1z"/>
	<path class="st0" d="M352.7,228.3l16.4,6.2c0.2,0.1,0.4,0.1,0.5,0.1c0.6,0,1.2-0.4,1.4-1c0.3-0.8-0.1-1.6-0.9-1.9l-16.4-6.2   c-0.8-0.3-1.6,0.1-1.9,0.9C351.6,227.1,352,228,352.7,228.3z"/>
	<path class="st0" d="M349.2,197.3l-3.5-1.3c-0.8-0.3-1.6,0.1-1.9,0.9c-0.3,0.8,0.1,1.6,0.9,1.9l3.5,1.3c0.2,0.1,0.4,0.1,0.5,0.1   c0.6,0,1.2-0.4,1.4-1C350.4,198.4,350,197.5,349.2,197.3z"/>
	<path class="st0" d="M360.1,201.3l-3.5-1.3c-0.8-0.3-1.6,0.1-1.9,0.9c-0.3,0.8,0.1,1.6,0.9,1.9l3.5,1.3c0.2,0.1,0.4,0.1,0.5,0.1   c0.6,0,1.2-0.4,1.4-1C361.3,202.5,360.9,201.6,360.1,201.3z"/>
	<path class="st0" d="M371,205.4l-3.5-1.3c-0.8-0.3-1.6,0.1-1.9,0.9c-0.3,0.8,0.1,1.6,0.9,1.9l3.5,1.3c0.2,0.1,0.4,0.1,0.5,0.1   c0.6,0,1.2-0.4,1.4-1C372.1,206.6,371.7,205.7,371,205.4z"/>
	<path class="st0" d="M209.9,33.9l-4.2,1.1c-0.8,0.2-1.3,1-1.1,1.8c0.2,0.7,0.8,1.1,1.5,1.1c0.1,0,0.2,0,0.4,0l4.2-1.1   c0.8-0.2,1.3-1,1.1-1.8S210.7,33.7,209.9,33.9z"/>
	<path class="st0" d="M341.6,30.3l11.5,5.7c0.8,0.4,1.7,0.6,2.5,0.6c2.2,0,4.3-1.3,5.3-3.3l5.8-11.7c1.4-2.9,0.3-6.5-2.6-7.9   l-11.5-5.7c-0.8-0.4-1.7-0.6-2.5-0.6c-2.2,0-4.3,1.3-5.3,3.3L339,22.4C337.5,25.3,338.7,28.9,341.6,30.3z M341.6,23.7l5.8-11.7   c0.5-1,1.5-1.7,2.6-1.7c0.4,0,0.8,0.1,1.2,0.3l11.5,5.7c1.4,0.7,2,2.4,1.3,3.9l-5.8,11.7c-0.7,1.4-2.5,2-3.9,1.4l-11.5-5.7   C341.5,26.9,340.9,25.2,341.6,23.7z"/>
	<path class="st0" d="M322.9,11.4l8.7,4.3c0.2,0.1,0.4,0.2,0.7,0.2c0.6,0,1.1-0.3,1.3-0.8c0.4-0.7,0.1-1.6-0.7-2l-8.7-4.3   c-0.7-0.4-1.6-0.1-2,0.7C321.8,10.2,322.1,11.1,322.9,11.4z"/>
	<path class="st0" d="M325,7.1l8.7,4.3c0.2,0.1,0.4,0.2,0.7,0.2c0.6,0,1.1-0.3,1.3-0.8c0.4-0.7,0.1-1.6-0.7-2l-8.7-4.3   c-0.7-0.4-1.6-0.1-2,0.7C323.9,5.8,324.2,6.7,325,7.1z"/>
	<path class="st0" d="M348,25.1c0.2,0,0.3,0,0.5-0.1l2.6-0.9l0.8,2.5c0.2,0.6,0.8,1,1.4,1c0.2,0,0.3,0,0.5-0.1   c0.8-0.3,1.2-1.1,0.9-1.9l-0.8-2.5l4.2-1.4c0.8-0.3,1.2-1.1,0.9-1.9c-0.3-0.8-1.1-1.2-1.9-0.9l-4.2,1.4l-1.5-4.4   c-0.3-0.8-1.1-1.2-1.9-0.9c-0.8,0.3-1.2,1.1-0.9,1.9l1.5,4.4l-2.6,0.9c-0.8,0.3-1.2,1.1-0.9,1.9C346.8,24.7,347.4,25.1,348,25.1z"/>
	<path class="st0" d="M210.3,24.9l-3.6,0.9c-0.8,0.2-1.3,1-1.1,1.8c0.2,0.7,0.8,1.1,1.5,1.1c0.1,0,0.2,0,0.4,0l3.6-0.9   c0.8-0.2,1.3-1,1.1-1.8C211.9,25.2,211.1,24.7,210.3,24.9z"/>
	<path class="st0" d="M219.5,25.7l3.6-0.9c0.8-0.2,1.3-1,1.1-1.8c-0.2-0.8-1-1.3-1.8-1.1l-3.6,0.9c-0.8,0.2-1.3,1-1.1,1.8   c0.2,0.7,0.8,1.1,1.5,1.1C219.3,25.7,219.4,25.7,219.5,25.7z"/>
	<path class="st0" d="M236.3,19.9c-0.2-0.8-1-1.3-1.8-1.1l-3.6,0.9c-0.8,0.2-1.3,1-1.1,1.8c0.2,0.7,0.8,1.1,1.5,1.1   c0.1,0,0.2,0,0.4,0l3.6-0.9C236,21.5,236.5,20.7,236.3,19.9z"/>
	<path class="st0" d="M248.4,16.8c-0.2-0.8-1-1.3-1.8-1.1l-3.6,0.9c-0.8,0.2-1.3,1-1.1,1.8c0.2,0.7,0.8,1.1,1.5,1.1   c0.1,0,0.2,0,0.4,0l3.6-0.9C248.1,18.4,248.6,17.6,248.4,16.8z"/>
	<path class="st0" d="M223.8,30.3l-4.2,1.1c-0.8,0.2-1.3,1-1.1,1.8c0.2,0.7,0.8,1.1,1.5,1.1c0.1,0,0.2,0,0.4,0l4.2-1.1   c0.8-0.2,1.3-1,1.1-1.8S224.6,30.1,223.8,30.3z"/>
	<path class="st0" d="M237.8,26.8l-4.2,1.1c-0.8,0.2-1.3,1-1.1,1.8c0.2,0.7,0.8,1.1,1.5,1.1c0.1,0,0.2,0,0.4,0l4.2-1.1   c0.8-0.2,1.3-1,1.1-1.8C239.4,27.1,238.6,26.6,237.8,26.8z"/>
	<path class="st0" d="M246.5,26.1c0.2,0.7,0.8,1.1,1.5,1.1c0.1,0,0.2,0,0.4,0l4.2-1.1c0.8-0.2,1.3-1,1.1-1.8c-0.2-0.8-1-1.3-1.8-1.1   l-4.2,1.1C246.8,24.5,246.3,25.3,246.5,26.1z"/>
	<path class="st0" d="M153.9,10.4c0.4,0,0.8-0.1,1.1-0.4l2.8-2.8c0.6-0.6,0.6-1.5,0-2.1c-0.6-0.6-1.5-0.6-2.1,0l-2.8,2.8   c-0.6,0.6-0.6,1.5,0,2.1C153.1,10.3,153.5,10.4,153.9,10.4z"/>
	<path class="st0" d="M157.1,14.2c0.3,0.3,0.7,0.4,1.1,0.4c0.4,0,0.8-0.1,1.1-0.4l5.5-5.5c0.6-0.6,0.6-1.5,0-2.1   c-0.6-0.6-1.5-0.6-2.1,0l-5.5,5.5C156.5,12.7,156.5,13.7,157.1,14.2z"/>
	<path class="st0" d="M163.9,13.4l-2.8,2.8c-0.6,0.6-0.6,1.5,0,2.1c0.3,0.3,0.7,0.4,1.1,0.4c0.4,0,0.8-0.1,1.1-0.4l2.8-2.8   c0.6-0.6,0.6-1.5,0-2.1C165.5,12.8,164.5,12.8,163.9,13.4z"/>
	<path class="st0" d="M165.4,22.6c0.3,0.3,0.7,0.4,1.1,0.4c0.4,0,0.8-0.1,1.1-0.4l5.5-5.5c0.6-0.6,0.6-1.5,0-2.1   c-0.6-0.6-1.5-0.6-2.1,0l-5.5,5.5C164.9,21,164.9,22,165.4,22.6z"/>
	<path class="st0" d="M172.2,21.7l-2.8,2.8c-0.6,0.6-0.6,1.5,0,2.1c0.3,0.3,0.7,0.4,1.1,0.4c0.4,0,0.8-0.1,1.1-0.4l2.8-2.8   c0.6-0.6,0.6-1.5,0-2.1C173.8,21.1,172.8,21.1,172.2,21.7z"/>
	<path class="st0" d="M173.8,30.9c0.3,0.3,0.7,0.4,1.1,0.4c0.4,0,0.8-0.1,1.1-0.4l5.5-5.5c0.6-0.6,0.6-1.5,0-2.1   c-0.6-0.6-1.5-0.6-2.1,0l-5.5,5.5C173.2,29.3,173.2,30.3,173.8,30.9z"/>
	<path class="st0" d="M118.1,373l10.8,2.3c0.1,0,0.2,0,0.3,0c0.7,0,1.3-0.5,1.5-1.2c0.2-0.8-0.3-1.6-1.1-1.8l-10.8-2.3   c-0.8-0.2-1.6,0.3-1.8,1.1C116.8,372,117.3,372.8,118.1,373z"/>
	<path class="st0" d="M303.7,388c0.5,0,1-0.2,1.2-0.7c0.5-0.7,0.3-1.6-0.4-2.1l-17.5-11.8c-0.7-0.5-1.6-0.3-2.1,0.4   c-0.5,0.7-0.3,1.6,0.4,2.1l17.5,11.8C303.2,387.9,303.4,388,303.7,388z"/>
</g>
</svg>